<?xml version="1.0" standalone="no"?><!DOCTYPE svg PUBLIC "-//W3C//DTD SVG 1.1//EN" "http://www.w3.org/Graphics/SVG/1.1/DTD/svg11.dtd"><svg height="4000" node-id="1" sillyvg="true" template-height="4000" template-width="4000" version="1.1" viewBox="0 0 4000 4000" width="4000" xmlns="http://www.w3.org/2000/svg" xmlns:xlink="http://www.w3.org/1999/xlink"><defs node-id="93"><linearGradient gradientUnits="userSpaceOnUse" id="SVGID_1_" node-id="6" spreadMethod="pad" x1="232.5438" x2="3718.114" y1="2000" y2="2000"><stop offset="0" stop-color="#68b2fc"></stop><stop offset="1" stop-color="#529bf7"></stop></linearGradient><linearGradient gradientUnits="userSpaceOnUse" id="SVGID_2_" node-id="10" spreadMethod="pad" x1="578.5048" x2="3495.6199" y1="1926.2408" y2="1926.2408"><stop offset="0" stop-color="#4085f0"></stop><stop offset="1" stop-color="#275dc9"></stop></linearGradient><linearGradient gradientUnits="userSpaceOnUse" id="SVGID_3_" node-id="16" spreadMethod="pad" x1="1066.6443" x2="1618.6449" y1="1030.5796" y2="1030.5796"><stop offset="0" stop-color="#4085f0"></stop><stop offset="1" stop-color="#275dc9"></stop></linearGradient><linearGradient gradientUnits="userSpaceOnUse" id="SVGID_4_" node-id="36" spreadMethod="pad" x1="2317.934" x2="3161.9458" y1="1808.4257" y2="1808.4257"><stop offset="0" stop-color="#4085f0"></stop><stop offset="1" stop-color="#275dc9"></stop></linearGradient><linearGradient gradientUnits="userSpaceOnUse" id="SVGID_5_" node-id="41" spreadMethod="pad" x1="2270.7217" x2="3114.7334" y1="2079.5571" y2="2079.5571"><stop offset="0" stop-color="#4085f0"></stop><stop offset="1" stop-color="#275dc9"></stop></linearGradient><linearGradient gradientUnits="userSpaceOnUse" id="SVGID_6_" node-id="46" spreadMethod="pad" x1="2223.5095" x2="3067.5212" y1="2350.6887" y2="2350.6887"><stop offset="0" stop-color="#4085f0"></stop><stop offset="1" stop-color="#275dc9"></stop></linearGradient><linearGradient gradientUnits="userSpaceOnUse" id="SVGID_9_" node-id="78" spreadMethod="pad" x1="76.2915" x2="537.5779" y1="2060.8997" y2="2060.8997"><stop offset="0" stop-color="#68b2fc"></stop><stop offset="1" stop-color="#529bf7"></stop></linearGradient><linearGradient gradientUnits="userSpaceOnUse" id="SVGID_10_" node-id="82" spreadMethod="pad" x1="3549.6924" x2="3923.7085" y1="2674.774" y2="2674.774"><stop offset="0" stop-color="#68b2fc"></stop><stop offset="1" stop-color="#529bf7"></stop></linearGradient><linearGradient gradientUnits="userSpaceOnUse" id="SVGID_11_" node-id="86" spreadMethod="pad" x1="3149.5522" x2="3334.1934" y1="576.0025" y2="576.0025"><stop offset="0" stop-color="#4085f0"></stop><stop offset="1" stop-color="#275dc9"></stop></linearGradient><clipPath id="SVGID_8_" node-id="56"><path d="M 738.90 2021.30 C 738.90 2021.30 1404.50 1756.50 1901.80 1745.20 C 1944.10 2465.00 1944.10 2648.70 1944.10 2648.70 C 1944.10 2648.70 1424.10 2633.60 996.10 2804.30 C 866.40 2445.50 793.00 2271.40 738.90 2021.30 Z" fill="#000000" fill-rule="nonzero" node-id="150" stroke="none" target-height="1059.1001" target-width="1205.2" target-x="738.9" target-y="1745.2"></path></clipPath></defs><path d="M 1950.10 1954.70 C 1950.10 1954.70 1982.80 2036.90 2049.90 2045.30 C 2048.40 2007.90 2048.40 2007.90 2048.40 2007.90 C 2048.40 2007.90 1969.00 1985.50 1950.10 1954.70 Z" fill="#db6767" fill-rule="nonzero" node-id="154" stroke="none" target-height="90.6001" target-width="99.79993" target-x="1950.1" target-y="1954.7"></path><g node-id="287"><path d="M 243.90 1762.50 C 307.90 2837.00 506.20 3122.80 684.90 3171.80 C 766.70 3194.20 933.60 3191.50 1056.70 3318.80 C 1139.80 3404.80 1167.20 3513.20 1177.70 3586.80 C 1279.60 3621.80 1431.50 3670.40 1618.60 3716.50 C 2034.70 3819.00 2386.40 3905.70 2777.20 3837.50 C 2994.00 3799.70 3358.50 3736.20 3564.00 3457.10 C 3817.10 3113.50 3751.90 2548.10 3417.00 2047.80 C 3741.90 1300.60 3402.50 480.40 2785.80 223.50 C 2311.90 26.10 1713.00 177.60 1316.00 612.60 C 1274.00 609.20 764.90 577.30 442.80 984.40 C 179.90 1316.60 233.80 1698.30 243.90 1762.50 Z" fill="url(#SVGID_1_)" fill-rule="nonzero" group-id="1" node-id="158" stroke="none" target-height="3879.5999" target-width="3637.2002" target-x="179.9" target-y="26.1"></path><path d="M 728.80 919.70 C 749.90 1032.70 806.90 1135.00 855.60 1239.20 C 904.30 1343.30 946.00 1456.40 933.10 1570.60 C 913.50 1744.80 775.00 1877.80 687.90 2029.90 C 585.00 2209.40 552.70 2428.20 599.40 2629.80 C 646.00 2831.40 771.10 3013.70 942.40 3129.80 C 1045.20 3199.50 1178.90 3269.40 1183.00 3393.50 C 1186.60 3502.50 1084.70 3581.70 993.60 3641.50 C 1054.20 3713.30 1167.80 3706.50 1255.30 3672.40 C 1342.80 3638.30 1424.70 3582.90 1518.30 3575.80 C 1640.30 3566.50 1751.00 3640.60 1867.50 3678.10 C 2049.00 3736.50 2245.60 3705.60 2433.70 3674.10 C 2671.40 3634.30 2909.10 3594.50 3146.80 3554.70 C 3248.50 3537.70 3358.50 3516.10 3426.50 3438.70 C 3507.60 3346.20 3500.40 3208.40 3488.50 3085.90 C 3447.30 2661.10 3406.00 2236.30 3364.80 1811.60 C 3334.30 1497.20 3303.70 1182.80 3273.20 868.40 C 3259.90 731.10 3239.00 579.00 3132.90 490.90 C 3068.00 437.00 2982.20 417.40 2899.80 399.30 C 2594.70 332.50 2289.60 265.80 1984.60 199.00 C 1845.80 168.60 1705.30 138.10 1563.20 141.90 C 1352.20 147.70 1146.40 235.70 991.10 377.60 C 845.80 510.10 690.30 713.50 728.80 919.70 Z" fill="url(#SVGID_2_)" fill-rule="nonzero" group-id="1" node-id="160" stroke="none" target-height="3598.4" target-width="2954.9001" target-x="552.7" target-y="138.1"></path><g node-id="288"><path d="M 3237.30 2910.60 C 2768.70 2648.00 1468.20 2640.90 907.90 2910.60 C 659.90 2317.00 523.70 1703.50 589.80 1053.60 C 1303.10 560.80 2958.80 573.80 3555.40 1053.60 C 3628.20 1776.00 3529.40 2362.70 3237.30 2910.60 Z" fill="#ffffff" fill-rule="nonzero" group-id="1,2" node-id="164" stroke="none" target-height="2349.8" target-width="3104.5" target-x="523.7" target-y="560.8"></path><path d="M 1612.20 945.50 C 1394.70 975.60 1210.70 1022.90 1066.70 1069.50 L 1072.30 1115.60 C 1401.80 1002.80 1618.70 988.70 1618.70 988.70 C 1618.70 988.70 1618.60 988.70 1612.20 945.50 Z" fill="url(#SVGID_3_)" fill-rule="nonzero" group-id="1,2" node-id="166" stroke="none" target-height="170.09998" target-width="552" target-x="1066.7" target-y="945.5"></path><path d="M 710.80 1215.70 C 710.80 1215.70 718.00 1240.90 725.20 1256.80 C 788.40 1227.00 849.50 1200.50 908.10 1176.80 L 901.40 1128.80 C 777.80 1177.80 710.80 1215.70 710.80 1215.70 Z" fill="#102140" fill-rule="nonzero" group-id="1,2" node-id="168" stroke="none" target-height="128" target-width="197.29999" target-x="710.8" target-y="1128.8"></path><path d="M 1612.20 1157.10 C 1394.70 1187.20 1210.70 1234.50 1066.70 1281.10 L 1072.30 1327.20 C 1401.80 1214.40 1618.70 1200.30 1618.70 1200.30 C 1618.70 1200.30 1618.60 1200.30 1612.20 1157.10 Z" fill="#d9d9d9" fill-rule="nonzero" group-id="1,2" node-id="170" stroke="none" target-height="170.09998" target-width="552" target-x="1066.7" target-y="1157.1"></path><path d="M 710.80 1427.30 C 710.80 1427.30 718.00 1452.50 725.20 1468.40 C 788.40 1438.60 849.50 1412.10 908.10 1388.40 L 901.40 1340.40 C 777.80 1389.30 710.80 1427.30 710.80 1427.30 Z" fill="#102140" fill-rule="nonzero" group-id="1,2" node-id="172" stroke="none" target-height="128" target-width="197.29999" target-x="710.8" target-y="1340.4"></path><path d="M 1612.20 1368.60 C 1394.70 1398.70 1210.70 1446.00 1066.70 1492.60 L 1072.30 1538.70 C 1401.80 1425.90 1618.70 1411.80 1618.70 1411.80 C 1618.70 1411.80 1618.60 1411.90 1612.20 1368.60 Z" fill="#d9d9d9" fill-rule="nonzero" group-id="1,2" node-id="174" stroke="none" target-height="170.09998" target-width="552" target-x="1066.7" target-y="1368.6"></path><path d="M 710.80 1638.80 C 710.80 1638.80 718.00 1664.00 725.20 1679.90 C 788.40 1650.10 849.50 1623.60 908.10 1599.90 L 901.40 1551.90 C 777.80 1600.90 710.80 1638.80 710.80 1638.80 Z" fill="#102140" fill-rule="nonzero" group-id="1,2" node-id="176" stroke="none" target-height="128" target-width="197.29999" target-x="710.8" target-y="1551.9"></path><path d="M 631.10 2003.60 C 1307.40 1649.40 2856.00 1494.60 3546.70 1960.80" fill="none" group-id="1,2" node-id="178" stroke="#d18b0d" stroke-linecap="round" stroke-width="2" target-height="509" target-width="2915.6" target-x="631.1" target-y="1494.6"></path><g node-id="290"><path d="M 2317.90 1130.70 C 2317.90 1256.70 2215.70 1358.90 2089.70 1358.90 C 1995.40 1358.90 1914.50 1301.70 1879.70 1220.10 L 1947.30 1190.60 C 1970.70 1246.20 2025.70 1285.20 2089.70 1285.20 C 2175.00 1285.20 2244.20 1216.00 2244.20 1130.70 C 2244.20 1045.40 2175.00 976.20 2089.70 976.20 C 2088.60 976.20 2087.60 976.30 2086.50 976.30 L 2084.40 902.70 C 2086.20 902.70 2087.90 902.60 2089.70 902.60 C 2215.80 902.40 2317.90 1004.60 2317.90 1130.70 Z" fill="#ffde70" fill-rule="nonzero" group-id="1,2,4" node-id="182" stroke="none" target-height="456.5" target-width="438.19995" target-x="1879.7" target-y="902.4"></path><path d="M 1935.20 1130.70 C 1935.20 1151.90 1939.50 1172.20 1947.20 1190.60 L 1879.60 1220.10 C 1867.90 1192.70 1861.40 1162.40 1861.40 1130.70 C 1861.40 1006.40 1960.70 905.50 2084.30 902.60 L 2086.40 976.20 C 2002.70 978.00 1935.20 1046.40 1935.20 1130.70 Z" fill="#572658" fill-rule="nonzero" group-id="1,2,4" node-id="184" stroke="none" target-height="317.5" target-width="224.99988" target-x="1861.4" target-y="902.6"></path></g><g node-id="291"><path d="M 2496.60 1250.40 L 2429.90 1279.50 C 2448.60 1323.40 2480.80 1360.10 2521.30 1384.40 L 2559.70 1322.50 C 2531.60 1306.00 2509.30 1280.70 2496.60 1250.40 Z" fill="#1b51c6" fill-rule="nonzero" group-id="1,2,5" node-id="189" stroke="none" target-height="134" target-width="129.80005" target-x="2429.9" target-y="1250.4"></path><path d="M 2637.20 966.00 C 2635.50 966.00 2633.70 966.10 2632.00 966.10 L 2634.10 1038.80 C 2635.20 1038.80 2636.20 1038.70 2637.30 1038.70 C 2721.50 1038.70 2789.80 1107.00 2789.80 1191.20 C 2789.80 1275.40 2721.50 1343.70 2637.30 1343.70 C 2609.00 1343.70 2582.50 1336.00 2559.70 1322.50 L 2521.30 1384.40 C 2555.20 1404.80 2594.80 1416.50 2637.20 1416.50 C 2761.70 1416.50 2862.50 1315.60 2862.50 1191.20 C 2862.50 1066.80 2761.70 966.00 2637.20 966.00 Z" fill="#ffde70" fill-rule="nonzero" group-id="1,2,5" node-id="191" stroke="none" target-height="450.5" target-width="341.19995" target-x="2521.3" target-y="966"></path><path d="M 2484.70 1191.30 C 2484.70 1212.30 2488.90 1232.20 2496.60 1250.40 L 2429.90 1279.50 C 2418.40 1252.40 2412.00 1222.60 2412.00 1191.30 C 2412.00 1068.60 2510.10 968.90 2632.00 966.10 L 2634.10 1038.80 C 2551.30 1040.50 2484.70 1108.10 2484.70 1191.30 Z" fill="#572658" fill-rule="nonzero" group-id="1,2,5" node-id="193" stroke="none" target-height="313.40002" target-width="222.1001" target-x="2412" target-y="966.1"></path></g><g node-id="292"><path d="M 3407.70 1335.20 C 3407.70 1459.60 3306.80 1560.50 3182.40 1560.50 C 3089.30 1560.50 3009.40 1504.00 2975.10 1423.40 L 3041.80 1394.30 C 3064.90 1449.20 3119.20 1487.70 3182.40 1487.70 C 3266.60 1487.70 3334.90 1419.40 3334.90 1335.20 C 3334.90 1251.00 3266.60 1182.70 3182.40 1182.70 C 3181.30 1182.70 3180.30 1182.80 3179.20 1182.80 L 3177.10 1110.10 C 3178.80 1110.10 3180.60 1110.00 3182.30 1110.00 C 3306.90 1109.90 3407.70 1210.80 3407.70 1335.20 Z" fill="#ffde70" fill-rule="nonzero" group-id="1,2,6" node-id="198" stroke="none" target-height="450.59998" target-width="432.59985" target-x="2975.1" target-y="1109.9"></path><path d="M 3029.90 1335.20 C 3029.90 1356.20 3034.10 1376.10 3041.80 1394.30 L 2975.10 1423.40 C 2963.60 1396.30 2957.20 1366.50 2957.20 1335.20 C 2957.20 1212.50 3055.30 1112.80 3177.20 1110.00 L 3179.30 1182.70 C 3096.50 1184.40 3029.90 1252.00 3029.90 1335.20 Z" fill="#1b51c6" fill-rule="nonzero" group-id="1,2,6" node-id="200" stroke="none" target-height="313.40002" target-width="222.1001" target-x="2957.2" target-y="1110"></path></g><path d="M 2317.90 1731.10 C 2317.90 1731.10 2857.10 1740.90 3161.90 1851.10 C 3153.30 1885.70 3153.30 1885.70 3153.30 1885.70 C 2881.80 1807.70 2602.40 1776.50 2317.90 1775.50 L 2317.90 1731.10 Z" fill="url(#SVGID_4_)" fill-rule="nonzero" group-id="1,2" node-id="203" stroke="none" target-height="154.59998" target-width="844" target-x="2317.9" target-y="1731.1"></path><path d="M 2294.30 1866.70 C 2294.30 1866.70 2833.50 1876.50 3138.30 1986.70 C 3129.70 2021.30 3129.70 2021.30 3129.70 2021.30 C 2858.20 1943.30 2578.80 1912.10 2294.30 1911.10 L 2294.30 1866.70 Z" fill="#d9d9d9" fill-rule="nonzero" group-id="1,2" node-id="205" stroke="none" target-height="154.6001" target-width="844" target-x="2294.3" target-y="1866.7"></path><path d="M 2270.70 2002.20 C 2270.70 2002.20 2809.90 2012.00 3114.70 2122.20 C 3106.10 2156.80 3106.10 2156.80 3106.10 2156.80 C 2834.60 2078.80 2555.20 2047.60 2270.70 2046.60 L 2270.70 2002.20 Z" fill="url(#SVGID_5_)" fill-rule="nonzero" group-id="1,2" node-id="207" stroke="none" target-height="154.6001" target-width="844" target-x="2270.7" target-y="2002.2"></path><path d="M 2247.10 2137.80 C 2247.10 2137.80 2786.30 2147.60 3091.10 2257.80 C 3082.50 2292.40 3082.50 2292.40 3082.50 2292.40 C 2811.00 2214.40 2531.60 2183.20 2247.10 2182.20 L 2247.10 2137.80 Z" fill="#d9d9d9" fill-rule="nonzero" group-id="1,2" node-id="209" stroke="none" target-height="154.59985" target-width="844" target-x="2247.1" target-y="2137.8"></path><path d="M 2223.50 2273.40 C 2223.50 2273.40 2762.70 2283.20 3067.50 2393.40 C 3058.90 2428.00 3058.90 2428.00 3058.90 2428.00 C 2787.40 2350.00 2508.00 2318.80 2223.50 2317.80 L 2223.50 2273.40 Z" fill="url(#SVGID_6_)" fill-rule="nonzero" group-id="1,2" node-id="211" stroke="none" target-height="154.6001" target-width="844" target-x="2223.5" target-y="2273.4"></path><path d="M 2199.90 2408.90 C 2199.90 2408.90 2739.10 2418.70 3043.90 2528.90 C 3035.30 2563.50 3035.30 2563.50 3035.30 2563.50 C 2763.80 2485.50 2484.40 2454.30 2199.90 2453.30 L 2199.90 2408.90 Z" fill="#d9d9d9" fill-rule="nonzero" group-id="1,2" node-id="213" stroke="none" target-height="154.6001" target-width="844" target-x="2199.9" target-y="2408.9"></path><path d="M 2176.30 2544.50 C 2176.30 2544.50 2715.50 2554.30 3020.30 2664.50 C 3011.70 2699.10 3011.70 2699.10 3011.70 2699.10 C 2740.20 2621.10 2460.80 2589.90 2176.30 2588.90 L 2176.30 2544.50 Z" fill="#ffde70" fill-rule="nonzero" group-id="1,2" node-id="215" stroke="none" target-height="154.6001" target-width="844" target-x="2176.3" target-y="2544.5"></path><path d="M 738.90 2021.30 C 738.90 2021.30 1404.50 1756.50 1901.80 1745.20 C 1944.10 2465.00 1944.10 2648.70 1944.10 2648.70 C 1944.10 2648.70 1424.10 2633.60 996.10 2804.30 C 866.40 2445.50 793.00 2271.40 738.90 2021.30 Z" fill="#102140" fill-rule="nonzero" group-id="1,2,7,8" node-id="221" stroke="none" target-height="1059.1001" target-width="1205.2" target-x="738.9" target-y="1745.2"></path><g clip-path="url(#SVGID_8_)" group-id="1,2,7,9" node-id="224"><path d="M 1161.50 2751.60 C 1170.00 2724.80 1175.60 2694.30 1162.40 2669.50 C 1152.50 2651.00 1133.80 2639.10 1115.40 2629.20 C 1096.90 2619.30 1077.40 2610.20 1063.20 2594.80 C 1049.00 2579.40 1041.60 2555.40 1051.90 2537.10 C 1060.70 2521.60 1080.60 2512.60 1084.00 2495.10 C 1085.80 2486.00 1082.80 2475.70 1088.00 2468.00 C 1091.30 2463.10 1097.20 2460.70 1101.80 2456.90 C 1120.70 2440.80 1109.40 2406.70 1125.60 2387.80 C 1128.20 2384.80 1131.60 2382.10 1132.80 2378.30 C 1133.70 2375.50 1133.30 2372.40 1132.40 2369.60 C 1127.90 2355.40 1111.90 2348.30 1097.10 2346.40 C 1082.30 2344.50 1067.00 2346.10 1052.90 2341.30 C 1026.30 2332.30 1011.10 2303.50 985.80 2291.20 C 987.20 2278.70 1009.20 2274.50 1007.10 2262.10 C 1005.90 2254.80 997.00 2252.10 989.80 2250.10 C 935.60 2235.10 901.10 2178.70 847.50 2161.50 C 855.20 2137.30 872.40 2116.30 894.60 2104.10 C 902.70 2099.60 911.70 2096.10 917.70 2089.00 C 930.50 2074.10 924.30 2051.60 925.00 2032.00 C 925.10 2028.70 925.50 2025.20 927.60 2022.60 C 930.00 2019.50 934.10 2018.40 937.90 2017.60 C 953.70 2014.20 970.10 2013.40 986.20 2015.10 C 1001.90 2016.80 1017.80 2020.90 1033.40 2018.50 C 1042.80 2017.00 1051.70 2013.20 1060.70 2009.90 C 1091.80 1998.60 1125.20 1993.70 1158.20 1995.60 C 1159.60 2011.20 1151.40 2026.50 1140.10 2037.30 C 1128.80 2048.10 1114.50 2055.30 1100.50 2062.30 C 1112.40 2067.90 1103.20 2086.20 1106.00 2099.10 C 1109.60 2115.30 1131.00 2118.40 1147.60 2117.90 C 1166.10 2117.40 1184.60 2116.90 1203.20 2116.40 C 1208.80 2144.10 1203.40 2174.00 1188.30 2197.90 C 1184.10 2204.50 1179.10 2211.20 1178.50 2219.00 C 1177.70 2229.00 1184.30 2237.90 1189.10 2246.70 C 1198.50 2263.80 1201.90 2283.50 1203.80 2302.80 C 1206.70 2332.10 1206.10 2363.10 1192.30 2389.10 C 1177.50 2416.90 1147.70 2440.50 1150.80 2471.80 C 1153.60 2499.90 1189.30 2518.80 1214.10 2505.30 C 1218.90 2502.70 1224.00 2499.00 1229.40 2500.30 C 1234.30 2501.50 1237.10 2506.30 1240.50 2510.00 C 1250.70 2521.30 1267.60 2523.40 1282.80 2522.40 C 1298.00 2521.40 1313.30 2518.00 1328.20 2521.10 C 1343.10 2524.20 1357.70 2536.60 1356.40 2551.80 C 1355.10 2567.70 1337.80 2578.50 1335.90 2594.30 C 1334.10 2609.40 1347.10 2622.20 1360.70 2629.00 C 1374.30 2635.80 1389.70 2639.30 1401.30 2649.10 C 1414.80 2660.50 1420.80 2678.50 1423.90 2695.90 C 1424.70 2700.60 1425.40 2705.70 1423.20 2709.90 C 1419.90 2716.40 1411.70 2718.40 1404.60 2719.90 C 1367.10 2727.40 1330.50 2738.90 1295.50 2754.30 C 1290.70 2756.40 1285.50 2758.90 1283.30 2763.70 C 1281.20 2768.10 1282.20 2773.20 1281.50 2777.90 C 1279.40 2794.00 1261.40 2802.50 1245.70 2806.60 C 1222.90 2812.60 1199.40 2815.90 1175.90 2816.40 C 1160.40 2816.70 1148.90 2836.40 1145.20 2815.40 C 1141.60 2796.20 1155.90 2769.50 1161.50 2751.60 Z" fill="#ffffff" fill-rule="nonzero" group-id="1,2,7,9" node-id="226" stroke="none" target-height="842.69995" target-width="577.9" target-x="847.5" target-y="1993.7"></path></g><g clip-path="url(#SVGID_8_)" group-id="1,2,7,10" node-id="229"><path d="M 1292.90 2047.60 C 1290.80 2040.00 1289.70 2031.30 1294.00 2024.70 C 1297.30 2019.80 1302.90 2017.20 1308.00 2014.20 C 1327.00 2003.30 1340.80 1985.40 1354.10 1968.10 C 1359.60 1960.90 1365.20 1953.40 1366.60 1944.50 C 1367.90 1935.60 1363.20 1925.10 1354.40 1923.30 C 1383.40 1907.00 1417.10 1899.30 1450.20 1901.40 C 1453.70 1901.60 1457.50 1902.10 1459.80 1904.70 C 1463.30 1908.50 1461.70 1914.50 1462.10 1919.70 C 1462.80 1929.00 1472.00 1936.80 1481.40 1936.00 C 1495.20 1934.80 1502.90 1918.80 1515.70 1913.50 C 1521.30 1911.20 1527.50 1911.00 1533.30 1909.10 C 1548.00 1904.30 1559.20 1888.50 1574.60 1889.60 C 1583.30 1890.20 1590.50 1896.30 1597.10 1902.00 C 1616.30 1918.60 1640.50 1935.90 1664.90 1928.70 C 1679.60 1924.40 1690.20 1912.10 1702.40 1902.90 C 1728.00 1883.60 1763.40 1878.00 1793.70 1888.40 C 1795.90 1900.50 1798.00 1912.50 1800.20 1924.60 C 1800.60 1926.80 1801.10 1929.20 1802.90 1930.60 C 1804.50 1931.80 1806.70 1931.80 1808.70 1931.70 C 1816.00 1931.40 1823.30 1931.20 1830.60 1930.90 C 1838.50 1956.10 1841.60 1982.80 1839.50 2009.20 C 1838.80 2017.70 1837.60 2026.50 1839.80 2034.80 C 1843.20 2047.50 1854.40 2058.70 1852.30 2071.70 C 1849.90 2086.80 1830.40 2096.20 1831.50 2111.40 C 1832.60 2126.40 1852.60 2132.90 1857.50 2147.10 C 1859.20 2152.20 1858.80 2157.70 1858.40 2163.10 C 1857.10 2180.20 1855.70 2197.20 1854.40 2214.30 C 1854.00 2219.40 1853.50 2224.70 1851.20 2229.20 C 1843.70 2243.70 1821.90 2242.70 1807.70 2234.50 C 1805.70 2233.40 1803.80 2232.00 1802.60 2230.10 C 1801.00 2227.30 1801.30 2223.90 1801.30 2220.70 C 1801.50 2200.80 1787.20 2181.50 1768.00 2176.10 C 1770.00 2185.80 1771.90 2195.70 1770.10 2205.40 C 1768.30 2215.10 1761.70 2224.60 1752.10 2226.80 C 1741.10 2229.40 1730.40 2222.10 1721.40 2215.20 C 1716.30 2211.30 1711.00 2207.10 1708.80 2201.20 C 1707.30 2197.20 1707.20 2192.60 1704.70 2189.20 C 1699.50 2182.00 1687.00 2185.40 1682.60 2193.20 C 1678.30 2201.00 1679.60 2210.50 1681.00 2219.30 C 1682.40 2228.30 1683.90 2237.30 1685.30 2246.20 C 1686.10 2251.30 1686.80 2256.90 1684.10 2261.20 C 1682.00 2264.40 1678.30 2266.30 1674.70 2267.50 C 1662.30 2271.50 1647.90 2268.80 1637.90 2260.40 C 1627.90 2252.00 1622.70 2238.20 1625.10 2225.30 C 1605.30 2221.40 1583.70 2228.00 1569.40 2242.20 C 1555.10 2256.50 1548.40 2278.00 1552.30 2297.90 C 1544.30 2298.80 1536.30 2299.80 1528.30 2300.70 C 1529.70 2310.00 1517.90 2315.60 1508.60 2315.40 C 1499.30 2315.20 1488.70 2312.90 1481.30 2318.60 C 1477.50 2321.60 1475.00 2326.40 1470.60 2328.20 C 1463.40 2331.10 1455.50 2324.30 1453.50 2316.80 C 1451.50 2309.30 1453.20 2301.40 1453.00 2293.60 C 1452.90 2288.90 1452.10 2284.00 1454.20 2279.80 C 1456.50 2274.90 1461.90 2272.40 1466.60 2269.70 C 1482.40 2260.50 1494.10 2245.70 1505.30 2231.30 C 1509.60 2225.80 1514.20 2218.90 1511.90 2212.30 C 1509.50 2205.30 1500.90 2202.90 1493.50 2201.80 C 1474.10 2198.90 1454.50 2197.40 1434.90 2197.50 C 1465.30 2179.40 1483.40 2142.50 1479.00 2107.30 C 1478.10 2100.00 1475.90 2092.20 1469.80 2088.00 C 1465.60 2085.10 1460.30 2084.50 1455.20 2084.20 C 1439.10 2083.50 1422.90 2085.90 1407.70 2091.20 C 1394.70 2095.80 1382.50 2102.40 1369.30 2106.10 C 1327.00 2117.50 1302.90 2084.40 1292.90 2047.60 Z" fill="#ffffff" fill-rule="nonzero" group-id="1,2,7,10" node-id="231" stroke="none" target-height="453.1001" target-width="569.5" target-x="1289.7" target-y="1878"></path></g><g clip-path="url(#SVGID_8_)" group-id="1,2,7,11" node-id="234"><path d="M 1521.10 2382.60 C 1515.90 2381.30 1510.10 2379.10 1505.70 2382.10 C 1502.10 2384.60 1501.30 2389.40 1499.90 2393.60 C 1495.20 2406.90 1481.20 2415.80 1478.40 2429.70 C 1476.80 2437.70 1479.20 2446.00 1478.00 2454.00 C 1475.20 2473.50 1453.90 2483.80 1435.40 2490.80 C 1444.10 2509.20 1468.30 2512.20 1486.90 2520.30 C 1505.00 2528.10 1519.40 2542.30 1533.40 2556.10 C 1536.10 2558.80 1538.90 2561.60 1540.60 2565.00 C 1542.30 2568.70 1542.60 2572.90 1543.60 2576.80 C 1549.10 2599.10 1575.70 2610.30 1598.50 2607.60 C 1602.30 2607.10 1606.10 2606.40 1609.30 2604.30 C 1614.90 2600.70 1617.40 2593.90 1622.00 2589.00 C 1630.80 2579.80 1645.00 2579.20 1657.80 2579.30 C 1674.90 2579.40 1692.00 2579.60 1709.10 2579.70 C 1717.70 2579.80 1726.70 2579.90 1734.60 2583.30 C 1742.60 2586.70 1749.40 2594.10 1749.40 2602.80 C 1764.20 2598.40 1778.70 2592.90 1792.80 2586.50 C 1797.20 2584.50 1801.70 2582.30 1805.00 2578.60 C 1807.70 2575.60 1809.30 2571.90 1810.70 2568.10 C 1817.70 2549.80 1821.00 2530.00 1820.50 2510.40 C 1820.30 2502.70 1819.60 2494.50 1823.60 2488.00 C 1828.00 2480.70 1836.80 2477.70 1843.60 2472.50 C 1860.40 2459.60 1862.50 2435.50 1862.50 2414.30 C 1862.50 2387.50 1861.40 2360.60 1859.30 2333.90 C 1859.00 2330.70 1858.70 2327.40 1856.80 2324.80 C 1853.90 2320.90 1848.40 2320.10 1843.50 2319.90 C 1811.20 2318.50 1779.60 2328.00 1747.90 2334.40 C 1705.00 2343.20 1662.30 2340.30 1619.40 2346.10 C 1584.70 2350.60 1557.80 2391.50 1521.10 2382.60 Z" fill="#ffffff" fill-rule="nonzero" group-id="1,2,7,11" node-id="236" stroke="none" target-height="291.80005" target-width="427.09998" target-x="1435.4" target-y="2318.5"></path></g></g><g node-id="289"><path d="M 1840.20 3543.60 L 1788.50 3648.20 C 1788.50 3648.20 1918.40 3751.10 2189.30 3723.80 C 2460.20 3696.50 2613.80 3644.00 2613.80 3644.00 L 2574.00 3503.80 L 2352.10 3390.90 L 1840.20 3543.60 Z" fill="#102140" fill-rule="nonzero" group-id="1,3" node-id="243" stroke="none" target-height="360.2002" target-width="825.30005" target-x="1788.5" target-y="3390.9"></path><path d="M 2477.80 3176.50 C 2474.80 3176.50 2471.80 3185.50 2465.90 3188.40 C 2370.30 3233.20 2268.80 3242.10 2164.30 3212.30 C 2161.30 3209.30 2158.30 3203.30 2155.30 3200.40 C 2044.80 3170.50 1961.20 3083.90 1892.50 2991.40 C 1886.50 2982.40 1886.50 2970.50 1880.60 2964.50 C 1829.80 2895.80 1806.00 2821.20 1752.20 2755.50 C 1749.20 2749.50 1740.30 2746.50 1737.30 2740.60 C 1734.30 2734.70 1737.30 2728.70 1737.30 2722.70 C 1722.40 2680.90 1689.50 2645.10 1674.60 2603.30 C 1671.60 2597.30 1668.60 2588.40 1662.70 2579.40 C 1659.70 2570.40 1665.70 2561.50 1662.70 2552.50 C 1656.70 2543.50 1644.80 2531.60 1641.80 2522.60 C 1620.90 2459.90 1585.10 2409.10 1573.10 2349.40 C 1549.20 2203.10 1564.10 2056.80 1611.90 1922.40 C 1617.90 1910.50 1617.90 1895.50 1617.90 1883.60 C 1617.90 1874.60 1632.80 1865.70 1632.80 1859.70 C 1637.40 1806.40 1656.50 1758.50 1682.90 1714.60 C 1680.80 1714.20 1678.60 1713.90 1676.30 1713.60 C 1522.10 1889.40 1496.20 2196.30 1496.20 2272.70 C 1496.20 2349.10 1693.60 2788.60 1736.80 2852.00 C 1780.00 2915.40 1840.60 3118.60 1843.40 3280.00 C 1846.30 3441.40 1778.60 3598.80 1778.60 3598.80 C 1925.60 3692.80 2140.30 3638.80 2140.30 3638.80 L 2193.60 3471.60 C 2193.60 3471.60 2193.60 3471.60 2271.40 3620.00 C 2309.00 3637.00 2463.80 3673.30 2608.60 3548.00 C 2601.00 3501.60 2570.10 3222.50 2555.00 3085.20 C 2547.70 3102.50 2543.40 3120.50 2531.50 3134.80 C 2519.60 3155.60 2504.60 3167.50 2477.80 3176.50 Z" fill="#eb485c" fill-rule="nonzero" group-id="1,3" node-id="245" stroke="none" target-height="1979.2001" target-width="1112.4001" target-x="1496.2" target-y="1713.6"></path><path d="M 2834.80 3095.40 C 2787.20 2890.80 2561.00 2564.40 2505.50 2505.30 C 2450.00 2446.20 2313.80 2336.00 2290.10 2330.90 C 2266.30 2325.90 2059.70 2332.30 2059.70 2332.30 C 2059.70 2332.30 1917.60 2383.50 1852.10 2404.30 C 1787.30 2384.80 1716.60 2340.20 1679.20 2194.60 C 1641.70 2049.10 1767.10 1752.20 1767.10 1752.20 C 1767.10 1752.20 1746.90 1725.20 1682.90 1714.30 C 1656.50 1758.20 1637.40 1806.10 1632.80 1859.40 C 1632.80 1865.40 1617.90 1874.30 1617.90 1883.30 C 1617.90 1895.20 1617.90 1910.20 1611.90 1922.10 C 1564.10 2056.50 1549.20 2202.80 1573.10 2349.10 C 1585.00 2408.80 1620.90 2459.60 1641.80 2522.30 C 1644.80 2531.30 1656.70 2543.20 1662.70 2552.20 C 1665.70 2561.20 1659.70 2570.10 1662.70 2579.10 C 1668.70 2588.10 1671.70 2597.00 1674.60 2603.00 C 1689.50 2644.80 1722.40 2680.60 1737.30 2722.40 C 1737.30 2728.40 1734.30 2734.30 1737.30 2740.30 C 1740.30 2746.30 1749.20 2749.30 1752.20 2755.20 C 1805.90 2820.90 1829.80 2895.50 1880.60 2964.20 C 1886.60 2970.20 1886.60 2982.10 1892.50 2991.10 C 1961.20 3083.70 2044.80 3170.30 2155.30 3200.10 C 2158.30 3203.10 2161.30 3209.10 2164.30 3212.00 C 2268.80 3241.90 2370.30 3232.90 2465.90 3188.10 C 2471.90 3185.10 2474.90 3176.20 2477.80 3176.20 C 2504.70 3167.20 2519.60 3155.30 2531.50 3134.40 C 2543.40 3120.20 2547.70 3102.10 2555.00 3084.80 C 2553.70 3073.00 2552.50 3062.20 2551.50 3052.70 C 2548.50 3025.20 2546.70 3008.60 2546.70 3008.60 C 2546.70 3008.60 2553.70 3016.90 2564.40 3031.10 C 2564.40 3030.70 2564.40 3030.20 2564.40 3029.80 C 2564.40 3030.20 2564.40 3030.70 2564.40 3031.10 C 2587.20 3061.20 2626.90 3117.90 2653.30 3178.60 C 2692.20 3267.90 2689.30 3455.30 2689.30 3455.30 L 2834.80 3491.30 C 2834.80 3491.70 2882.40 3300.00 2834.80 3095.40 Z" fill="#ef5164" fill-rule="nonzero" group-id="1,3" node-id="247" stroke="none" target-height="1777.3999" target-width="1333.2" target-x="1549.2" target-y="1714.3"></path><path d="M 2263.30 2301.30 C 2249.20 2259.20 2258.40 2137.00 2258.40 2137.00 C 2258.40 2137.00 2179.40 2149.60 2102.30 2145.20 C 2095.80 2197.30 2099.60 2260.70 2079.80 2307.40 C 2111.30 2308.80 2191.10 2311.00 2263.30 2301.30 Z" fill="#fc9590" fill-rule="nonzero" group-id="1,3" node-id="249" stroke="none" target-height="174" target-width="183.5" target-x="2079.8" target-y="2137"></path><path d="M 2075.80 2142.90 C 2082.80 2206.10 2066.10 2306.60 2066.10 2306.60 C 2066.10 2306.60 2071.10 2306.90 2079.90 2307.30 C 2099.70 2260.60 2095.90 2197.20 2102.40 2145.10 C 2093.40 2144.70 2084.50 2144.00 2075.80 2142.90 Z" fill="#db6767" fill-rule="nonzero" group-id="1,3" node-id="251" stroke="none" target-height="164.40015" target-width="36.299805" target-x="2066.1" target-y="2142.9"></path><path d="M 2040.10 2357.50 C 2040.10 2357.50 2006.70 2358.60 2010.20 2332.60 C 2013.70 2306.70 2034.20 2287.80 2040.10 2287.20 C 2046.00 2286.70 2109.80 2300.70 2164.40 2297.50 C 2219.00 2294.30 2270.90 2284.50 2287.10 2282.40 C 2303.30 2280.20 2314.70 2332.10 2300.60 2342.90 C 2286.50 2353.70 2069.10 2371.70 2040.10 2357.50 Z" fill="#ffffff" fill-rule="nonzero" group-id="1,3" node-id="253" stroke="none" target-height="91.5" target-width="308" target-x="2006.7" target-y="2280.2"></path><path d="M 1876.60 1425.00 C 1871.20 1430.20 1865.30 1435.70 1859.00 1441.50 C 1789.50 1505.20 1708.20 1662.00 1708.20 1662.00 C 1708.20 1662.00 1718.00 1669.10 1730.50 1677.80 C 1775.40 1595.90 1824.80 1518.10 1871.60 1432.70 C 1873.20 1430.10 1874.90 1427.50 1876.60 1425.00 Z" fill="#db6767" fill-rule="nonzero" group-id="1,3" node-id="255" stroke="none" target-height="252.80005" target-width="168.40002" target-x="1708.2" target-y="1425"></path><path d="M 1922.40 1378.90 C 1928.80 1374.80 1935.50 1371.40 1942.50 1368.60 C 1939.90 1362.60 1934.60 1366.60 1922.40 1378.90 Z" fill="#fc9590" fill-rule="nonzero" group-id="1,3" node-id="257" stroke="none" target-height="16.300049" target-width="20.099976" target-x="1922.4" target-y="1362.6"></path><path d="M 1876.60 1425.00 C 1874.90 1427.50 1873.20 1430.00 1871.60 1432.60 C 1824.80 1518.00 1775.40 1595.80 1730.50 1677.70 C 1751.30 1692.10 1779.40 1710.70 1781.80 1707.50 C 1785.70 1702.40 1835.90 1644.10 1864.80 1629.70 C 1893.80 1615.30 1913.10 1575.60 1918.20 1545.50 C 1923.40 1515.40 1908.50 1503.70 1878.90 1518.10 C 1888.60 1496.90 1947.10 1400.30 1943.90 1375.00 C 1943.50 1372.20 1943.10 1370.00 1942.40 1368.50 C 1935.40 1371.20 1928.70 1374.70 1922.30 1378.80 C 1912.40 1388.90 1897.90 1404.60 1876.60 1425.00 Z" fill="#fc9590" fill-rule="nonzero" group-id="1,3" node-id="259" stroke="none" target-height="342.19995" target-width="216.59998" target-x="1730.5" target-y="1368.5"></path><path d="M 1637.40 1702.00 C 1637.40 1702.00 1674.10 1650.80 1709.40 1649.40 C 1744.70 1648.00 1802.30 1684.00 1791.50 1735.10 C 1780.70 1786.30 1766.30 1813.60 1759.10 1810.00 C 1751.90 1806.40 1716.60 1758.80 1689.90 1755.20 C 1663.20 1751.60 1630.10 1748.00 1625.10 1740.10 C 1620.10 1732.30 1637.40 1702.00 1637.40 1702.00 Z" fill="#ffffff" fill-rule="nonzero" group-id="1,3" node-id="261" stroke="none" target-height="165.59998" target-width="182.20007" target-x="1620.1" target-y="1648"></path><path d="M 2331.90 2003.60 C 2331.90 2003.60 2360.00 1979.40 2361.40 2013.30 C 2362.80 2047.20 2336.90 2086.80 2318.20 2088.20 C 2299.50 2089.60 2331.90 2003.60 2331.90 2003.60 Z" fill="#fc9590" fill-rule="nonzero" group-id="1,3" node-id="263" stroke="none" target-height="110.20007" target-width="63.30005" target-x="2299.5" target-y="1979.4"></path><path d="M 2015.90 2003.60 C 2015.90 2003.60 1988.50 1979.40 1987.10 2013.30 C 1985.70 2047.20 2011.00 2086.80 2029.20 2088.20 C 2047.40 2089.60 2015.90 2003.60 2015.90 2003.60 Z" fill="#fc9590" fill-rule="nonzero" group-id="1,3" node-id="265" stroke="none" target-height="110.20007" target-width="61.700073" target-x="1985.7" target-y="1979.4"></path><path d="M 2028.20 2071.60 C 2028.20 2071.60 2036.80 2211.00 2133.00 2213.20 C 2229.20 2215.40 2308.10 2194.80 2320.00 2114.90 C 2331.90 2034.90 2371.90 1911.70 2333.00 1867.40 C 2294.10 1823.10 2114.70 1738.80 2066.10 1845.80 C 2059.70 1855.80 2055.30 1863.10 2055.30 1863.10 C 2055.30 1863.10 2020.20 1841.20 1998.30 1873.10 C 1976.40 1904.90 1968.80 2032.70 2028.20 2071.60 Z" fill="#102140" fill-rule="nonzero" group-id="1,3" node-id="267" stroke="none" target-height="476.59985" target-width="403.09985" target-x="1968.8" target-y="1738.8"></path><path d="M 2798.80 3556.50 L 2768.80 3545.50 C 2769.70 3588.70 2765.10 3628.00 2719.60 3648.20 C 2690.10 3661.80 2657.20 3653.00 2627.40 3636.20 C 2627.30 3638.00 2627.30 3639.70 2627.50 3641.50 C 2630.10 3676.80 2717.30 3741.00 2754.20 3691.90 C 2799.60 3631.50 2798.80 3556.50 2798.80 3556.50 Z" fill="#db6767" fill-rule="nonzero" group-id="1,3" node-id="269" stroke="none" target-height="195.5" target-width="172.30005" target-x="2627.3" target-y="3545.5"></path><path d="M 2719.60 3648.30 C 2765.10 3628.10 2769.70 3588.80 2768.80 3545.60 L 2698.30 3519.80 C 2698.30 3519.80 2681.00 3565.20 2677.80 3565.20 C 2674.60 3565.20 2664.30 3568.40 2664.30 3568.40 C 2664.30 3568.40 2628.70 3602.60 2627.40 3636.30 C 2657.20 3653.10 2690.10 3661.90 2719.60 3648.30 Z" fill="#fc9590" fill-rule="nonzero" group-id="1,3" node-id="271" stroke="none" target-height="142.09985" target-width="142.30005" target-x="2627.4" target-y="3519.8"></path><path d="M 2706.60 3444.10 C 2706.60 3444.10 2664.80 3413.80 2666.30 3444.10 C 2667.70 3474.40 2656.20 3516.10 2676.40 3536.30 C 2696.60 3556.50 2800.30 3588.20 2824.80 3572.30 C 2849.30 3556.40 2882.90 3487.30 2856.00 3477.20 C 2829.10 3467.20 2706.60 3444.10 2706.60 3444.10 Z" fill="#ffffff" fill-rule="nonzero" group-id="1,3" node-id="273" stroke="none" target-height="174.3999" target-width="226.69995" target-x="2656.2" target-y="3413.8"></path></g><path d="M 537.50 2060.90 C 537.50 2187.26 434.26 2289.70 306.90 2289.70 C 179.54 2289.70 76.30 2187.26 76.30 2060.90 C 76.30 1934.54 179.54 1832.10 306.90 1832.10 C 434.26 1832.10 537.50 1934.54 537.50 2060.90 Z" fill="url(#SVGID_9_)" fill-rule="nonzero" group-id="1" node-id="276" stroke="none" target-height="457.59998" target-width="461.2" target-x="76.3" target-y="1832.1"></path><path d="M 3923.70 2674.80 C 3923.70 2777.25 3839.98 2860.30 3736.70 2860.30 C 3633.42 2860.30 3549.70 2777.25 3549.70 2674.80 C 3549.70 2572.35 3633.42 2489.30 3736.70 2489.30 C 3839.98 2489.30 3923.70 2572.35 3923.70 2674.80 Z" fill="url(#SVGID_10_)" fill-rule="nonzero" group-id="1" node-id="278" stroke="none" target-height="371" target-width="374" target-x="3549.7" target-y="2489.3"></path><path d="M 3334.20 576.00 C 3334.20 626.98 3292.88 668.30 3241.90 668.30 C 3190.92 668.30 3149.60 626.98 3149.60 576.00 C 3149.60 525.02 3190.92 483.70 3241.90 483.70 C 3292.88 483.70 3334.20 525.02 3334.20 576.00 Z" fill="url(#SVGID_11_)" fill-rule="nonzero" group-id="1" node-id="280" stroke="none" target-height="184.59998" target-width="184.59985" target-x="3149.6" target-y="483.7"></path></g><path d="M 1923.70 1784.80 L 1952.00 1995.10 C 1952.00 1995.10 2062.70 2146.30 2074.50 2215.20 C 2095.40 2087.00 1923.70 1784.80 1923.70 1784.80 Z" fill="#d1334a" fill-rule="nonzero" node-id="283" stroke="none" target-height="430.3999" target-width="171.69995" target-x="1923.7" target-y="1784.8"></path><path d="M 1867.80 1676.50 C 1867.80 1676.50 2128.90 2019.30 2132.20 2323.60 C 2060.40 2084.80 1900.20 1769.50 1867.80 1676.50 Z" fill="#d1334a" fill-rule="nonzero" node-id="285" stroke="none" target-height="647.1001" target-width="264.3999" target-x="1867.8" target-y="1676.5"></path></svg>