<?xml version="1.0" standalone="no"?><!DOCTYPE svg PUBLIC "-//W3C//DTD SVG 1.1//EN" "http://www.w3.org/Graphics/SVG/1.1/DTD/svg11.dtd"><svg height="4000" node-id="1" sillyvg="true" template-height="4000" template-width="4000" version="1.1" viewBox="0 0 4000 4000" width="4000" xmlns="http://www.w3.org/2000/svg" xmlns:xlink="http://www.w3.org/1999/xlink"><defs node-id="115"><linearGradient gradientUnits="userSpaceOnUse" id="SVGID_1_" node-id="5" spreadMethod="pad" x1="651.3367" x2="3510.5999" y1="2000" y2="2000"><stop offset="0" stop-color="#68b2fc"></stop><stop offset="1" stop-color="#529bf7"></stop></linearGradient><linearGradient gradientUnits="userSpaceOnUse" id="SVGID_2_" node-id="9" spreadMethod="pad" x1="843.8002" x2="3597.504" y1="1963.1654" y2="1963.1654"><stop offset="0" stop-color="#4085f0"></stop><stop offset="1" stop-color="#275dc9"></stop></linearGradient><linearGradient gradientUnits="userSpaceOnUse" id="SVGID_3_" node-id="14" spreadMethod="pad" x1="2666.5532" x2="1751.8014" y1="3466.2117" y2="875.3024"><stop offset="0" stop-color="#68b2fc"></stop><stop offset="1" stop-color="#ebf0f7"></stop></linearGradient><linearGradient gradientUnits="userSpaceOnUse" id="SVGID_4_" node-id="18" spreadMethod="pad" x1="1658.4663" x2="3262.0579" y1="624.926" y2="624.926"><stop offset="0" stop-color="#4085f0"></stop><stop offset="1" stop-color="#275dc9"></stop></linearGradient><linearGradient gradientUnits="userSpaceOnUse" id="SVGID_5_" node-id="87" spreadMethod="pad" x1="1884.6346" x2="1961.4908" y1="1760.245" y2="1760.245"><stop offset="0" stop-color="#68b2fc"></stop><stop offset="1" stop-color="#529bf7"></stop></linearGradient><linearGradient gradientUnits="userSpaceOnUse" id="SVGID_6_" node-id="98" spreadMethod="pad" x1="3647.6025" x2="3903.867" y1="1400.4716" y2="1400.4716"><stop offset="0" stop-color="#4085f0"></stop><stop offset="1" stop-color="#275dc9"></stop></linearGradient><linearGradient gradientUnits="userSpaceOnUse" id="SVGID_7_" node-id="102" spreadMethod="pad" x1="96.1332" x2="548.3267" y1="2322.2578" y2="2322.2578"><stop offset="0" stop-color="#68b2fc"></stop><stop offset="1" stop-color="#529bf7"></stop></linearGradient><linearGradient gradientUnits="userSpaceOnUse" id="SVGID_8_" node-id="106" spreadMethod="pad" x1="3729.951" x2="3863.147" y1="3564.036" y2="3564.036"><stop offset="0" stop-color="#4085f0"></stop><stop offset="1" stop-color="#275dc9"></stop></linearGradient><linearGradient gradientUnits="userSpaceOnUse" id="SVGID_9_" node-id="110" spreadMethod="pad" x1="3589.3318" x2="3870.5703" y1="2932.0962" y2="2932.0962"><stop offset="0" stop-color="#68b2fc"></stop><stop offset="1" stop-color="#529bf7"></stop></linearGradient></defs><path d="M 884.70 1842.90 C 842.50 1894.20 637.80 2154.40 652.00 2482.70 C 669.30 2883.30 1003.00 3164.90 1022.10 3180.70 C 1098.40 3243.30 1160.40 3272.30 1238.90 3371.10 C 1365.80 3530.90 1330.50 3615.20 1424.00 3725.40 C 1591.20 3922.50 1912.50 3898.80 1968.60 3894.60 C 2002.20 3892.10 2246.90 3870.70 2444.50 3693.70 C 2547.30 3601.60 2538.40 3556.00 2682.40 3429.30 C 2780.20 3343.20 2853.60 3278.70 2967.90 3244.20 C 3121.50 3197.90 3176.00 3258.00 3285.20 3196.60 C 3382.10 3142.20 3424.50 3046.90 3454.40 2979.80 C 3528.40 2813.60 3511.20 2658.40 3502.00 2583.20 C 3482.60 2425.50 3439.80 2413.60 3364.50 2123.20 C 3329.40 1987.90 3312.00 1918.90 3316.90 1853.50 C 3328.60 1697.70 3404.20 1660.60 3443.80 1493.90 C 3476.70 1355.50 3457.30 1243.20 3438.50 1134.30 C 3416.30 1005.80 3385.90 830.20 3248.10 669.00 C 3205.50 619.10 3035.20 433.50 2782.80 404.60 C 2600.10 383.70 2529.70 462.70 2333.40 404.60 C 2289.80 391.70 2203.00 366.00 2111.30 298.80 C 1986.60 207.50 1979.70 132.30 1889.20 108.40 C 1802.60 85.60 1721.50 131.40 1640.70 177.10 C 1496.90 258.40 1413.60 370.20 1376.30 425.60 C 1228.60 645.30 1200.20 878.60 1175.40 1102.40 C 1145.70 1369.80 1178.50 1455.50 1096.10 1604.70 C 1031.80 1721.60 979.40 1727.80 884.70 1842.90 Z" fill="url(#SVGID_1_)" fill-rule="nonzero" node-id="174" stroke="none" target-height="3836.9" target-width="2890.5999" target-x="637.8" target-y="85.6"></path><path d="M 921.70 2665.10 C 801.70 2916.40 853.40 3160.10 863.50 3204.40 C 882.20 3285.90 921.80 3458.90 1075.00 3569.20 C 1099.20 3586.70 1208.70 3665.50 1350.00 3659.10 C 1394.20 3657.10 1409.70 3648.20 1476.90 3632.70 C 1600.50 3604.10 1654.80 3609.60 1788.90 3595.70 C 1900.60 3584.10 2034.10 3570.30 2185.50 3521.70 C 2367.80 3463.10 2351.10 3426.30 2476.30 3402.70 C 2643.60 3371.20 2702.40 3431.50 2883.40 3415.90 C 3053.10 3401.30 3136.90 3359.60 3187.40 3326.00 C 3215.90 3307.10 3260.00 3277.20 3298.40 3222.90 C 3312.50 3202.90 3344.00 3154.10 3377.70 2969.10 C 3407.20 2807.00 3392.60 2792.70 3422.60 2744.40 C 3478.00 2655.40 3545.00 2676.60 3581.20 2599.00 C 3622.80 2509.90 3574.00 2397.20 3546.80 2334.60 C 3514.00 2258.90 3486.00 2243.40 3459.60 2157.50 C 3445.80 2112.50 3432.40 2069.10 3435.80 2017.40 C 3444.60 1883.40 3554.20 1866.00 3581.20 1721.30 C 3591.80 1664.60 3584.40 1616.40 3570.60 1525.70 C 3570.60 1525.70 3557.00 1436.10 3530.90 1359.10 C 3481.90 1214.20 3383.50 1102.60 3300.90 1020.70 C 3118.70 840.00 3054.00 844.20 2777.40 626.80 C 2543.70 443.10 2553.80 411.80 2428.40 354.50 C 2228.70 263.30 2035.00 265.90 1936.70 267.30 C 1855.00 268.40 1723.20 271.30 1563.90 325.50 C 1485.00 352.40 1302.20 416.90 1140.90 589.90 C 1113.60 619.20 865.10 893.60 881.80 1266.70 C 889.10 1430.70 946.30 1582.70 971.70 1650.00 C 1023.20 1786.80 1063.90 1833.30 1106.50 1983.10 C 1142.00 2107.60 1164.10 2185.30 1151.40 2279.20 C 1128.50 2451.70 1016.50 2466.50 921.70 2665.10 Z" fill="url(#SVGID_2_)" fill-rule="nonzero" node-id="176" stroke="none" target-height="3402.2" target-width="2821.1" target-x="801.7" target-y="263.3"></path><path d="M 863.50 3204.40 C 882.20 3285.90 921.80 3458.90 1075.00 3569.20 C 1099.20 3586.70 1208.70 3665.50 1350.00 3659.10 C 1394.20 3657.10 1409.70 3648.20 1476.90 3632.70 C 1600.50 3604.10 1654.80 3609.60 1788.90 3595.70 C 1900.60 3584.10 2034.10 3570.30 2185.50 3521.70 C 2367.80 3463.10 2351.10 3426.30 2476.30 3402.70 C 2643.60 3371.20 2702.40 3431.50 2883.40 3415.90 C 3053.10 3401.30 3136.90 3359.60 3187.40 3326.00 C 3190.80 3323.80 3194.40 3321.30 3198.20 3318.80 L 853.70 2887.80 C 829.40 3046.70 856.50 3173.60 863.50 3204.40 Z" fill="#dbd2db" fill-rule="nonzero" node-id="178" stroke="none" target-height="777.69995" target-width="2368.7998" target-x="829.4" target-y="2887.8"></path><path d="M 3547.00 2334.60 C 3514.20 2258.90 3486.20 2243.40 3459.80 2157.50 C 3446.00 2112.50 3432.60 2069.10 3436.00 2017.40 C 3444.80 1883.40 3554.40 1866.00 3581.40 1721.30 C 3592.00 1664.60 3584.60 1616.40 3570.80 1525.70 C 3570.80 1525.70 3557.20 1436.10 3531.10 1359.10 C 3482.10 1214.20 3383.70 1102.60 3301.10 1020.70 C 3287.50 1007.20 3274.50 994.70 3262.00 983.10 L 1658.40 298.10 C 1628.20 305.30 1596.80 314.30 1564.10 325.40 C 1485.20 352.30 1302.40 416.80 1141.10 589.80 C 1113.80 619.10 865.30 893.50 882.00 1266.60 C 889.30 1430.60 946.50 1582.60 971.90 1649.90 C 1023.40 1786.70 1064.10 1833.20 1106.70 1983.00 C 1142.20 2107.50 1164.30 2185.20 1151.60 2279.10 C 1128.40 2451.70 1016.40 2466.50 921.60 2665.10 C 885.00 2741.90 864.30 2817.90 853.60 2887.80 L 3198.10 3318.80 C 3226.20 3299.70 3264.50 3270.80 3298.40 3222.90 C 3312.50 3202.90 3344.00 3154.10 3377.70 2969.10 C 3407.20 2807.00 3392.60 2792.70 3422.60 2744.40 C 3478.00 2655.40 3545.00 2676.60 3581.20 2599.00 C 3623.00 2509.90 3574.10 2397.20 3547.00 2334.60 Z" fill="url(#SVGID_3_)" fill-rule="nonzero" node-id="180" stroke="none" target-height="3020.7" target-width="2769.4" target-x="853.6" target-y="298.1"></path><path d="M 2777.60 626.70 C 2543.90 443.00 2554.00 411.70 2428.60 354.40 C 2228.90 263.20 2035.20 265.80 1936.90 267.20 C 1871.90 268.10 1775.40 270.10 1658.40 298.10 L 3262.00 983.10 C 3108.00 839.30 3033.50 827.90 2777.60 626.70 Z" fill="url(#SVGID_4_)" fill-rule="nonzero" node-id="182" stroke="none" target-height="719.89996" target-width="1603.6" target-x="1658.4" target-y="263.2"></path><g node-id="342"><path d="M 1919.30 1698.30 L 1958.10 1698.30 L 1965.60 451.40 L 3305.70 1033.10 C 3304.20 1031.60 3302.70 1030.10 3301.20 1028.60 C 3268.10 995.80 3238.90 969.10 3211.60 946.00 L 1965.90 403.20 L 1966.70 274.70 C 1956.00 274.80 1946.10 274.90 1937.00 275.00 C 1934.10 275.00 1931.10 275.10 1928.00 275.10 L 1927.30 386.30 L 1715.20 294.00 C 1691.40 298.30 1666.50 303.70 1640.70 310.40 L 1927.00 434.70 L 1919.30 1698.30 Z" fill="#3b546b" fill-rule="nonzero" group-id="1" node-id="186" stroke="none" target-height="1423.6001" target-width="1665" target-x="1640.7" target-y="274.7"></path><path d="M 1159.80 2902.80 L 3264.90 3271.50 C 3264.20 3272.20 3263.50 3273.00 3262.70 3273.70 C 3262.00 3274.40 3261.30 3275.20 3260.50 3275.90 C 3256.60 3279.80 3252.70 3283.60 3248.80 3287.10 C 3247.30 3288.50 3245.80 3289.80 3244.40 3291.10 C 3243.30 3292.00 3242.30 3293.00 3241.20 3293.90 C 3239.70 3295.20 3238.30 3296.40 3236.80 3297.60 C 3234.00 3299.90 3231.30 3302.20 3228.60 3304.30 C 3217.00 3313.60 3206.10 3321.30 3196.40 3327.90 L 3196.40 3327.90 L 849.50 2927.80 C 849.50 2927.70 849.50 2927.60 849.50 2927.50 C 849.80 2924.50 850.20 2921.40 850.60 2918.40 C 850.90 2916.10 851.20 2913.70 851.50 2911.40 C 851.50 2911.00 851.60 2910.60 851.70 2910.20 C 852.00 2907.70 852.40 2905.20 852.70 2902.70 C 852.80 2902.00 852.90 2901.30 853.00 2900.50 C 855.40 2884.20 858.40 2867.50 861.90 2850.60 L 1086.70 2890.00 L 1102.20 2420.50 L 1102.20 2420.50 L 1115.40 2021.50 L 1115.40 2021.50 L 1134.40 1446.60 L 891.50 1369.00 C 891.10 1366.50 890.80 1364.00 890.40 1361.50 C 888.80 1350.20 887.30 1338.80 886.10 1327.20 C 885.90 1325.20 885.70 1323.20 885.50 1321.20 C 884.70 1312.90 883.90 1304.50 883.30 1296.00 L 1136.60 1380.40 L 1154.10 576.10 L 1206.20 526.50 L 1189.10 1402.30 L 3453.50 2145.00 C 3455.50 2151.80 3457.60 2158.60 3459.70 2165.40 C 3463.20 2176.80 3466.80 2187.00 3470.40 2196.30 L 1187.80 1469.00 L 1187.80 1469.00 L 1159.80 2902.80 Z" fill="#3b546b" fill-rule="nonzero" group-id="1" node-id="188" stroke="none" target-height="2801.4" target-width="2620.9" target-x="849.5" target-y="526.5"></path></g><g node-id="343"><path d="M 3061.10 1407.40 C 3062.60 1405.20 3064.20 1402.90 3065.80 1400.50 C 3064.20 1402.70 3062.60 1405.00 3061.10 1407.40 Z" fill="#127755" fill-rule="nonzero" group-id="2" node-id="193" stroke="none" target-height="6.9000244" target-width="4.699951" target-x="3061.1" target-y="1400.5"></path><path d="M 3080.70 1245.50 C 3082.70 1261.70 3084.30 1271.20 3084.30 1271.20 C 3084.60 1263.20 3083.30 1254.60 3080.70 1245.50 Z" fill="#127755" fill-rule="nonzero" group-id="2" node-id="195" stroke="none" target-height="25.699951" target-width="3.9001465" target-x="3080.7" target-y="1245.5"></path><path d="M 3395.90 1176.40 C 3315.60 1215.70 3177.10 1225.50 3172.30 1333.90 C 3175.00 1333.70 3177.60 1333.50 3180.20 1333.30 C 3182.50 1329.10 3186.90 1321.10 3195.30 1305.70 C 3212.70 1273.90 3385.40 1208.70 3395.90 1176.40 Z" fill="#083022" fill-rule="nonzero" group-id="2" node-id="197" stroke="none" target-height="157.5" target-width="223.59985" target-x="3172.3" target-y="1176.4"></path><path d="M 3006.70 1242.40 C 2983.70 1146.00 2924.50 1053.90 2829.10 1023.40 C 2961.70 1127.40 2893.30 1260.10 2990.10 1292.10 C 2983.50 1293.60 2977.40 1295.00 2971.80 1296.40 C 2974.40 1297.30 2977.00 1298.30 2979.60 1299.30 C 3016.60 1314.10 3014.10 1264.70 3006.70 1242.40 Z" fill="#083022" fill-rule="nonzero" group-id="2" node-id="199" stroke="none" target-height="290.69995" target-width="187.5" target-x="2829.1" target-y="1023.4"></path><path d="M 3395.90 1176.40 C 3396.10 1175.90 3396.20 1175.40 3396.30 1174.90 C 3208.60 1142.30 3139.00 1294.80 3139.00 1294.80 C 3138.60 1288.80 3138.30 1283.00 3138.00 1277.20 C 3136.10 1277.30 3134.30 1276.50 3132.80 1274.60 C 3083.40 1205.40 3103.10 1121.30 3120.40 1037.20 C 3134.40 967.40 3165.80 899.80 3233.40 875.60 C 3234.30 873.70 3235.10 871.90 3235.90 870.00 C 3051.90 884.80 3070.30 1159.30 3080.70 1245.60 C 3083.30 1254.60 3084.60 1263.30 3084.30 1271.30 C 3084.30 1271.30 3082.60 1261.70 3080.70 1245.60 C 3053.10 1150.20 2875.60 1009.20 2820.80 1017.20 C 2823.60 1019.30 2826.40 1021.40 2829.00 1023.50 C 2924.40 1054.00 2983.70 1146.10 3006.60 1242.50 C 3014.00 1264.80 3016.50 1314.20 2979.40 1299.40 C 2976.80 1298.40 2974.20 1297.40 2971.60 1296.50 C 2906.50 1312.70 2906.40 1327.90 2868.30 1425.30 C 2873.00 1417.60 2879.10 1411.30 2886.30 1406.00 C 2936.00 1351.80 3012.70 1331.10 3085.70 1344.00 C 3027.30 1371.40 3003.90 1436.60 2999.70 1501.60 C 3006.20 1474.70 3019.30 1469.30 3061.10 1407.60 C 3062.60 1405.20 3064.10 1402.90 3065.80 1400.70 C 3064.20 1403.10 3062.70 1405.40 3061.10 1407.60 C 3020.30 1473.40 3049.90 1589.10 3097.50 1634.20 C 3093.90 1614.80 3093.00 1597.50 3094.10 1581.20 C 3071.60 1509.90 3092.00 1423.30 3137.60 1366.20 C 3236.50 1361.30 3313.10 1420.60 3362.60 1502.20 C 3367.70 1510.40 3372.20 1519.60 3375.80 1529.20 C 3377.80 1516.60 3379.30 1495.80 3378.60 1461.50 C 3353.00 1318.70 3177.70 1338.10 3177.70 1338.10 C 3177.70 1338.10 3177.70 1338.10 3180.20 1333.50 C 3177.60 1333.70 3174.90 1333.90 3172.30 1334.10 C 3177.10 1225.50 3315.60 1215.70 3395.90 1176.40 Z" fill="#127755" fill-rule="nonzero" group-id="2" node-id="201" stroke="none" target-height="764.19995" target-width="575.5" target-x="2820.8" target-y="870"></path><path d="M 3085.80 1343.80 C 3012.80 1330.90 2936.10 1351.60 2886.40 1405.80 C 2915.50 1384.40 2962.60 1381.20 3008.50 1385.50 C 2951.20 1417.20 2980.30 1504.50 2993.50 1550.30 C 2995.50 1526.90 2997.10 1512.40 2999.70 1501.40 C 3004.00 1436.30 3027.40 1371.20 3085.80 1343.80 Z" fill="#083022" fill-rule="nonzero" group-id="2" node-id="203" stroke="none" target-height="219.40002" target-width="199.40015" target-x="2886.4" target-y="1330.9"></path><path d="M 3120.40 1037.20 C 3103.10 1121.30 3083.30 1205.30 3132.80 1274.60 C 3134.30 1276.50 3136.10 1277.20 3138.00 1277.20 C 3123.00 983.70 3197.70 952.60 3233.40 875.60 C 3165.90 899.80 3134.40 967.40 3120.40 1037.20 Z" fill="#083022" fill-rule="nonzero" group-id="2" node-id="205" stroke="none" target-height="401.59998" target-width="150.09985" target-x="3083.3" target-y="875.6"></path><path d="M 3160.00 2149.80 C 3177.30 1996.50 3130.30 1850.60 3150.10 1697.30 C 3165.20 1588.10 3165.80 1476.10 3130.40 1374.20 L 3108.60 1388.10 C 3129.10 1751.20 3126.90 2143.60 3108.60 2556.70 C 3108.60 2556.70 3117.70 2558.80 3128.70 2559.50 C 3132.90 2536.10 3140.30 2513.10 3147.70 2491.00 C 3179.70 2377.30 3147.60 2266.00 3160.00 2149.80 Z" fill="#1c0c1c" fill-rule="nonzero" group-id="2" node-id="207" stroke="none" target-height="1185.3" target-width="71.09985" target-x="3108.6" target-y="1374.2"></path><path d="M 3142.50 1366.50 L 3130.40 1374.20 C 3165.80 1476.00 3165.20 1588.10 3150.10 1697.30 C 3130.30 1850.60 3177.30 1996.50 3160.00 2149.80 C 3147.60 2266.00 3179.80 2377.30 3147.60 2491.00 C 3140.20 2513.10 3132.90 2536.20 3128.60 2559.50 C 3137.60 2560.10 3147.90 2559.80 3155.70 2556.70 C 3198.10 2539.50 3188.90 1368.00 3142.50 1366.50 Z" fill="#634963" fill-rule="nonzero" group-id="2" node-id="209" stroke="none" target-height="1193.6001" target-width="69.5" target-x="3128.6" target-y="1366.5"></path><path d="M 3137.70 1366.00 C 3092.00 1423.10 3071.70 1509.70 3094.20 1581.00 C 3098.10 1526.20 3125.30 1482.60 3150.40 1409.30 C 3262.30 1377.60 3368.10 1548.50 3368.10 1548.50 C 3368.10 1548.50 3372.70 1548.80 3375.90 1529.00 C 3372.40 1519.40 3367.80 1510.20 3362.70 1502.00 C 3313.30 1420.40 3236.60 1361.10 3137.70 1366.00 Z" fill="#083022" fill-rule="nonzero" group-id="2" node-id="211" stroke="none" target-height="219.90002" target-width="304.19995" target-x="3071.7" target-y="1361.1"></path><path d="M 3163.80 2469.40 C 3167.20 2509.40 3173.30 2549.20 3174.80 2589.90 C 3174.80 2649.20 3177.30 2711.00 3172.30 2770.40 C 3169.80 2800.10 3167.40 2829.70 3159.90 2861.90 C 3137.60 2975.60 3103.00 3069.60 3038.80 3166.00 C 3009.10 3210.50 2962.20 3220.40 2917.70 3208.00 C 2910.30 3205.50 2905.30 3193.20 2902.90 3183.30 C 2883.10 3136.30 2893.00 3084.40 2878.20 3037.40 C 2871.70 3018.00 2865.70 2998.60 2858.60 2979.60 L 2890.90 3423.20 C 3055.60 3408.00 3137.80 3367.00 3187.60 3334.00 C 3188.90 3333.20 3190.20 3332.30 3191.50 3331.40 L 3269.60 2498.60 C 3269.40 2498.50 3229.00 2481.20 3163.80 2469.40 Z" fill="#572658" fill-rule="nonzero" group-id="2" node-id="213" stroke="none" target-height="953.80005" target-width="411" target-x="2858.6" target-y="2469.4"></path><path d="M 2902.80 3183.30 C 2905.30 3193.20 2910.20 3205.60 2917.60 3208.00 C 2962.10 3220.40 3009.10 3210.50 3038.70 3166.00 C 3103.00 3069.60 3137.60 2975.60 3159.80 2861.90 C 3167.20 2829.80 3169.70 2800.10 3172.20 2770.40 C 3177.10 2711.10 3174.70 2649.30 3174.70 2589.90 C 3173.20 2549.20 3167.10 2509.40 3163.70 2469.40 C 3080.20 2454.30 2956.00 2448.10 2823.40 2498.50 L 2858.40 2979.60 C 2865.60 2998.60 2871.60 3018.00 2878.00 3037.40 C 2892.90 3084.40 2883.10 3136.30 2902.80 3183.30 Z" fill="#b080b0" fill-rule="nonzero" group-id="2" node-id="215" stroke="none" target-height="772.2998" target-width="353.7002" target-x="2823.4" target-y="2448.1"></path></g><path d="M 2356.40 1366.50 C 2356.40 1366.50 2266.50 1331.70 2249.80 1243.60 C 2233.10 1155.50 2245.40 1129.00 2190.80 1092.00 C 2136.20 1055.00 2131.80 859.80 2235.70 895.70 C 2281.50 965.90 2430.50 1177.50 2430.50 1177.50 L 2447.20 1307.90 L 2439.30 1337.90 L 2356.40 1366.50 Z" fill="#1a1a1a" fill-rule="nonzero" node-id="218" stroke="none" target-height="506.7" target-width="315.3999" target-x="2131.8" target-y="859.8"></path><path d="M 2228.90 919.30 C 2228.90 919.30 2141.40 804.10 2248.30 769.50 C 2266.50 712.50 2421.60 684.30 2502.70 786.50 C 2583.80 888.70 2556.80 945.10 2585.00 998.00 C 2613.20 1050.90 2758.90 1140.20 2757.70 1251.80 C 2651.90 1287.10 2550.90 1263.60 2550.90 1263.60 L 2228.90 919.30 Z" fill="#1a1a1a" fill-rule="nonzero" node-id="220" stroke="none" target-height="602.8" target-width="617.5" target-x="2141.4" target-y="684.3"></path><path d="M 2591.30 1264.70 C 2595.80 1268.20 2600.50 1271.10 2605.40 1273.60 C 2615.50 1256.40 2622.50 1236.50 2625.20 1213.70 C 2556.50 1164.30 2537.10 1145.00 2530.00 1111.50 C 2524.50 1085.50 2528.10 1027.20 2496.60 1001.10 C 2501.40 1096.30 2501.40 1204.00 2591.30 1264.70 Z" fill="#db6767" fill-rule="nonzero" node-id="222" stroke="none" target-height="272.5" target-width="128.59985" target-x="2496.6" target-y="1001.1"></path><path d="M 2591.30 1264.70 C 2501.40 1204.00 2501.40 1096.30 2496.60 1001.10 C 2487.50 993.60 2475.50 988.70 2459.50 988.10 C 2388.10 985.50 2377.50 969.60 2373.10 936.10 C 2368.70 902.60 2392.90 858.30 2367.80 845.30 C 2318.40 819.70 2261.20 870.90 2261.20 870.90 C 2261.20 870.90 2200.40 900.90 2231.20 993.40 C 2262.00 1085.90 2320.20 1212.00 2397.80 1170.50 C 2397.80 1170.50 2416.30 1304.70 2392.80 1364.10 C 2451.50 1374.90 2559.90 1351.60 2605.40 1273.60 C 2600.50 1271.10 2595.80 1268.10 2591.30 1264.70 Z" fill="#fc9590" fill-rule="nonzero" node-id="224" stroke="none" target-height="555.2" target-width="405" target-x="2200.4" target-y="819.7"></path><path d="M 2998.00 1740.60 C 2998.40 1720.00 2998.80 1689.70 2999.40 1655.50 C 3001.00 1552.30 3004.00 1414.10 3013.30 1404.00 C 3020.50 1396.10 3026.00 1383.40 3037.70 1376.00 C 2983.20 1358.20 2851.80 1382.00 2851.80 1382.00 L 2743.70 2294.10 L 2775.10 2352.30 L 2800.80 2362.40 C 2810.80 2341.80 2816.70 2329.60 2820.20 2322.30 C 2825.30 2311.70 2825.30 2311.70 2825.30 2311.70 C 2825.30 2311.70 3061.50 2327.50 3036.80 2174.20 C 3012.10 2020.90 2996.20 1823.50 2998.00 1740.60 Z" fill="#3b546b" fill-rule="nonzero" group-id="3" node-id="228" stroke="none" target-height="1004.19995" target-width="317.80005" target-x="2743.7" target-y="1358.2"></path><path d="M 3046.40 1853.40 C 3027.50 1675.00 3051.30 1541.90 3060.30 1463.00 C 3059.80 1464.50 3059.20 1465.90 3058.50 1467.40 C 3059.20 1466.00 3059.70 1464.50 3060.30 1463.00 C 3061.70 1450.70 3062.80 1439.80 3063.20 1430.20 C 3060.20 1410.30 3049.70 1390.90 3038.00 1375.70 C 3037.80 1375.80 3037.70 1375.90 3037.50 1376.00 C 3025.80 1383.40 3020.30 1396.10 3013.10 1404.00 C 3003.80 1414.10 3000.90 1552.30 2999.20 1655.50 C 2998.70 1689.70 2998.30 1720.00 2997.80 1740.60 C 2996.00 1823.50 3011.90 2020.90 3036.60 2174.20 C 3061.30 2327.50 2825.10 2311.70 2825.10 2311.70 C 2825.10 2311.70 2825.10 2311.70 2820.00 2322.30 C 2816.50 2329.50 2810.60 2341.80 2800.60 2362.40 C 2799.40 2364.80 2798.20 2367.30 2797.00 2369.90 C 2865.70 2373.40 2987.40 2399.90 3061.80 2285.30 C 3136.30 2170.70 3073.80 2110.80 3046.40 1853.40 Z" fill="#102140" fill-rule="nonzero" group-id="3" node-id="230" stroke="none" target-height="1024.2" target-width="339.30005" target-x="2797" target-y="1375.7"></path><path d="M 2232.80 1667.70 C 2195.70 1608.40 2225.40 1534.20 2269.90 1489.70 C 2290.20 1468.10 2316.40 1453.10 2345.40 1443.90 L 2349.40 1328.90 C 2349.40 1328.90 2217.80 1368.90 2199.00 1442.90 C 2180.20 1516.90 2144.90 1969.00 2144.90 1969.00 L 2219.30 1966.90 C 2229.40 1947.00 2239.00 1928.10 2245.20 1907.60 C 2272.40 1830.80 2279.80 1744.30 2232.80 1667.70 Z" fill="#ef5668" fill-rule="nonzero" node-id="233" stroke="none" target-height="640.1" target-width="204.5" target-x="2144.9" target-y="1328.9"></path><path d="M 2269.90 1489.70 C 2225.40 1534.20 2195.70 1608.40 2232.80 1667.70 C 2279.80 1744.30 2272.40 1830.90 2245.20 1907.50 C 2239.00 1928.00 2229.50 1946.80 2219.30 1966.80 L 2361.40 1962.80 L 2342.30 1532.70 L 2345.40 1443.90 C 2316.40 1453.00 2290.20 1468.10 2269.90 1489.70 Z" fill="#d1334a" fill-rule="nonzero" node-id="235" stroke="none" target-height="522.9" target-width="165.69995" target-x="2195.7" target-y="1443.9"></path><path d="M 2710.00 1714.60 C 2648.20 1803.60 2561.70 1855.50 2465.20 1885.20 C 2420.30 1898.00 2368.10 1894.20 2318.00 1883.40 C 2318.50 1895.90 2318.50 1903.70 2318.50 1903.70 L 2340.50 2000.00 C 2340.50 2000.00 2500.90 2100.20 2768.80 2061.40 C 2853.10 1916.80 2826.50 1623.90 2786.90 1420.20 C 2768.80 1459.90 2759.60 1504.80 2756.90 1549.00 C 2754.50 1605.90 2744.60 1665.20 2710.00 1714.60 Z" fill="#d1334a" fill-rule="nonzero" node-id="237" stroke="none" target-height="680" target-width="535.1001" target-x="2318" target-y="1420.2"></path><path d="M 2578.30 1245.90 C 2548.20 1276.60 2513.90 1318.10 2506.30 1328.80 C 2494.00 1346.10 2476.50 1345.00 2476.50 1345.00 C 2476.50 1345.00 2413.80 1311.50 2381.20 1317.70 C 2348.60 1323.90 2339.60 1332.20 2319.30 1346.00 C 2299.00 1359.80 2288.70 1466.70 2288.70 1466.70 C 2288.70 1466.70 2247.30 1546.50 2235.80 1589.20 C 2224.10 1632.80 2245.50 1662.40 2268.20 1694.80 C 2329.20 1711.10 2393.60 1711.30 2457.90 1700.00 C 2596.40 1675.30 2700.20 1571.40 2724.90 1428.00 C 2727.40 1420.60 2734.80 1423.10 2739.70 1423.10 C 2734.80 1447.80 2762.00 1457.70 2762.00 1482.40 C 2762.30 1486.80 2762.90 1490.80 2763.90 1494.60 C 2768.90 1468.90 2776.40 1443.70 2787.00 1420.40 C 2778.90 1378.80 2770.30 1341.00 2761.90 1308.80 C 2761.10 1308.20 2760.30 1307.50 2759.50 1306.90 C 2702.00 1266.50 2641.60 1248.50 2578.30 1245.90 Z" fill="#ef5668" fill-rule="nonzero" node-id="239" stroke="none" target-height="465.40002" target-width="562.8999" target-x="2224.1" target-y="1245.9"></path><path d="M 2722.10 1200.70 C 2691.30 1189.50 2642.80 1209.10 2622.00 1211.10 C 2614.00 1211.90 2597.00 1226.80 2578.30 1245.90 C 2641.70 1248.50 2702.00 1266.50 2759.50 1306.70 C 2760.30 1307.30 2761.10 1308.00 2761.90 1308.60 C 2745.30 1244.80 2729.90 1203.50 2722.10 1200.70 Z" fill="#eb485c" fill-rule="nonzero" node-id="241" stroke="none" target-height="119.099976" target-width="183.59985" target-x="2578.3" target-y="1189.5"></path><path d="M 2739.70 1422.90 C 2734.80 1422.90 2727.30 1420.40 2724.90 1427.80 C 2700.20 1571.20 2596.30 1675.00 2457.90 1699.80 C 2393.50 1711.20 2329.20 1710.90 2268.20 1694.60 C 2273.30 1701.90 2278.50 1709.30 2283.40 1717.10 C 2310.10 1758.50 2316.60 1844.20 2318.10 1883.40 C 2368.20 1894.20 2420.40 1898.10 2465.30 1885.20 C 2561.70 1855.50 2648.30 1803.60 2710.10 1714.60 C 2744.70 1665.20 2754.60 1605.80 2757.10 1548.90 C 2758.20 1530.70 2760.40 1512.40 2763.90 1494.30 C 2762.90 1490.50 2762.30 1486.50 2762.00 1482.10 C 2761.90 1457.50 2734.70 1447.60 2739.70 1422.90 Z" fill="#eb485c" fill-rule="nonzero" node-id="243" stroke="none" target-height="477.69995" target-width="495.69995" target-x="2268.2" target-y="1420.4"></path><path d="M 2361.40 1257.70 L 2349.40 1328.80 C 2349.40 1328.80 2386.00 1343.80 2409.80 1341.90 C 2433.50 1339.90 2471.80 1358.60 2476.50 1356.90 C 2481.20 1355.10 2481.60 1341.00 2481.60 1337.50 C 2481.60 1334.00 2431.80 1275.80 2421.70 1276.30 C 2411.50 1276.70 2366.80 1244.00 2361.40 1257.70 Z" fill="#ffffff" fill-rule="nonzero" node-id="245" stroke="none" target-height="114.599976" target-width="132.2002" target-x="2349.4" target-y="1244"></path><path d="M 2496.20 1341.10 C 2494.50 1341.90 2486.40 1269.10 2503.00 1249.70 C 2519.60 1230.30 2573.10 1190.70 2580.80 1170.80 C 2600.20 1172.00 2625.20 1206.60 2625.20 1206.60 C 2625.20 1206.60 2556.70 1311.80 2496.20 1341.10 Z" fill="#ffffff" fill-rule="nonzero" node-id="247" stroke="none" target-height="171.09998" target-width="138.80005" target-x="2486.4" target-y="1170.8"></path><path d="M 2913.40 1515.00 C 2879.70 1362.70 2845.30 1275.60 2797.30 1233.70 C 2878.10 1357.80 2878.70 1500.40 2905.30 1642.90 C 2912.70 1682.50 2927.60 1717.10 2935.00 1756.60 C 2942.40 1808.50 2939.90 1862.90 2902.90 1902.50 C 2865.80 1937.10 2816.40 1944.50 2769.40 1949.50 C 2657.10 1960.30 2550.40 1988.10 2439.50 1986.70 C 2455.70 2009.80 2482.80 2013.80 2482.80 2013.80 C 2482.80 2013.80 2747.80 2006.80 2885.20 1966.20 C 3022.60 1925.70 2955.70 1706.30 2913.40 1515.00 Z" fill="#d1334a" fill-rule="nonzero" node-id="249" stroke="none" target-height="780.1001" target-width="583.1001" target-x="2439.5" target-y="1233.7"></path><path d="M 2848.40 1786.30 C 2888.00 1652.80 2823.70 1521.70 2803.90 1385.80 C 2799.00 1356.10 2786.60 1326.50 2759.40 1306.70 C 2716.20 1276.40 2671.30 1258.80 2624.70 1250.80 L 2697.40 1543.20 L 2738.80 1607.20 C 2738.80 1607.20 2761.10 1738.20 2775.20 1787.60 C 2725.80 1779.40 2497.30 1861.60 2480.90 1863.40 C 2465.30 1865.10 2432.50 1879.40 2427.90 1933.60 C 2452.20 1928.40 2476.70 1923.30 2502.20 1919.80 C 2625.90 1900.10 2806.40 1927.30 2848.40 1786.30 Z" fill="#ef5668" fill-rule="nonzero" node-id="251" stroke="none" target-height="682.7999" target-width="460.1001" target-x="2427.9" target-y="1250.8"></path><path d="M 2935.00 1756.70 C 2927.60 1717.10 2912.70 1682.50 2905.30 1643.00 C 2878.70 1500.40 2878.10 1357.90 2797.30 1233.80 C 2785.10 1223.10 2771.90 1215.30 2757.70 1210.20 C 2687.80 1184.90 2616.70 1218.40 2616.70 1218.40 L 2624.80 1250.80 C 2671.40 1258.80 2716.30 1276.40 2759.50 1306.70 C 2786.70 1326.50 2799.10 1356.10 2804.00 1385.80 C 2823.80 1521.80 2888.10 1652.80 2848.50 1786.30 C 2806.50 1927.20 2626.00 1900.00 2502.40 1919.80 C 2476.90 1923.30 2452.40 1928.40 2428.10 1933.60 C 2427.80 1936.70 2427.70 1939.90 2427.60 1943.30 C 2427.20 1962.40 2432.30 1976.40 2439.50 1986.70 C 2550.40 1988.10 2657.10 1960.30 2769.40 1949.50 C 2816.40 1944.60 2865.80 1937.10 2902.90 1902.50 C 2939.90 1863.00 2942.40 1808.60 2935.00 1756.70 Z" fill="#eb485c" fill-rule="nonzero" node-id="253" stroke="none" target-height="803.19995" target-width="515.19995" target-x="2427.2" target-y="1184.9"></path><path d="M 2444.50 1895.20 C 2444.50 1895.20 2451.00 1876.30 2470.40 1872.20 C 2489.80 1868.20 2517.40 1904.60 2519.80 1943.90 C 2522.10 1983.30 2508.30 2007.60 2492.20 2010.90 C 2476.00 2014.10 2430.80 1980.30 2434.00 1948.00 C 2437.20 1915.70 2444.50 1895.20 2444.50 1895.20 Z" fill="#912433" fill-rule="nonzero" node-id="255" stroke="none" target-height="145.90002" target-width="91.30005" target-x="2430.8" target-y="1868.2"></path><path d="M 2478.60 1894.60 C 2478.60 1894.60 2360.50 1880.50 2320.00 1951.00 C 2279.50 2021.50 2432.80 2010.90 2432.80 2010.90 C 2432.80 2010.90 2486.20 1989.70 2509.70 1986.80 C 2522.70 1915.10 2492.70 1894.60 2478.60 1894.60 Z" fill="#fc9590" fill-rule="nonzero" node-id="257" stroke="none" target-height="141" target-width="243.19995" target-x="2279.5" target-y="1880.5"></path><path d="M 1577.40 1607.20 L 2037.40 1486.80 L 2232.30 1885.20 L 1797.70 1987.40 Z" fill="#6584c6" fill-rule="nonzero" group-id="4" node-id="261" stroke="none" target-height="500.59998" target-width="654.9" target-x="1577.4" target-y="1486.8"></path><path d="M 2037.40 1486.80 L 2072.60 1493.90 L 2258.60 1876.40 L 2232.30 1885.20 Z" fill="#3b546b" fill-rule="nonzero" group-id="4" node-id="263" stroke="none" target-height="398.3999" target-width="221.20007" target-x="2037.4" target-y="1486.8"></path><path d="M 2522.70 2020.90 L 2488.20 2020.60 C 2488.20 2020.60 2488.20 2020.60 2488.10 2020.60 L 2259.60 1899.60 L 2275.40 1875.20 L 2522.70 2020.90 Z" fill="#3b546b" fill-rule="nonzero" group-id="4" node-id="265" stroke="none" target-height="145.70007" target-width="263.09985" target-x="2259.6" target-y="1875.2"></path><path d="M 2275.40 1875.20 L 2259.60 1899.60 L 1899.00 1978.60 L 1935.60 1953.40 Z" fill="#3b546b" fill-rule="nonzero" group-id="4" node-id="267" stroke="none" target-height="103.400024" target-width="376.3999" target-x="1899" target-y="1875.2"></path><path d="M 2488.20 2020.60 L 2200.80 2073.20 L 1899.10 1978.60 L 2259.70 1899.60 L 2488.20 2020.60 C 2488.10 2020.60 2488.20 2020.60 2488.20 2020.60 Z" fill="#102140" fill-rule="nonzero" group-id="4" node-id="269" stroke="none" target-height="173.59998" target-width="589.1" target-x="1899.1" target-y="1899.6"></path><path d="M 1387.20 2928.60 C 1422.00 2921.60 1452.10 2902.90 1483.30 2886.50 C 1484.00 2857.30 1483.30 2833.40 1483.30 2833.40 L 1398.10 2755.80 C 1398.10 2755.80 1352.60 2852.50 1314.70 2921.50 C 1333.10 2936.30 1366.10 2932.40 1387.20 2928.60 Z" fill="#fc9590" fill-rule="nonzero" node-id="272" stroke="none" target-height="180.5" target-width="169.30005" target-x="1314.7" target-y="2755.8"></path><path d="M 1483.30 2886.50 C 1452.10 2902.90 1422.00 2921.60 1387.20 2928.60 C 1366.10 2932.40 1333.10 2936.30 1314.70 2921.60 C 1302.30 2944.10 1290.80 2963.70 1281.80 2976.00 C 1245.40 3026.10 1148.40 3120.70 1160.80 3135.40 C 1173.10 3150.10 1264.20 3218.20 1407.60 3003.20 C 1421.10 3063.70 1431.10 3105.40 1431.10 3105.40 C 1431.10 3105.40 1454.00 3114.80 1464.60 3104.20 C 1475.20 3093.60 1459.30 3014.30 1472.80 2979.60 C 1480.00 2961.10 1482.60 2920.30 1483.30 2886.50 Z" fill="#1a1a1a" fill-rule="nonzero" node-id="274" stroke="none" target-height="331.69995" target-width="334.90002" target-x="1148.4" target-y="2886.5"></path><path d="M 2007.80 2172.00 C 2057.20 2201.70 2099.30 2238.80 2153.70 2258.50 C 2351.50 2330.20 2559.20 2399.40 2766.90 2347.50 C 2817.60 2335.10 2845.40 2292.50 2860.50 2240.90 C 2858.90 2094.60 2800.60 1999.60 2800.60 1999.60 L 2395.20 2022.50 L 2331.70 2047.20 C 2331.70 2047.20 1850.50 1863.90 1769.50 1994.30 C 1688.40 2124.70 1369.40 2697.50 1367.60 2752.20 C 1367.60 2752.20 1419.30 2875.60 1512.10 2856.80 C 1565.10 2800.10 1623.90 2731.40 1681.30 2660.00 C 1753.10 2538.50 1766.20 2388.90 1792.70 2246.10 C 1812.50 2142.40 1928.70 2130.00 2007.80 2172.00 Z" fill="#ffb114" fill-rule="nonzero" node-id="276" stroke="none" target-height="1011.7001" target-width="1492.9" target-x="1367.6" target-y="1863.9"></path><path d="M 2766.90 2347.60 C 2559.20 2399.50 2351.50 2330.30 2153.70 2258.60 C 2099.30 2238.80 2057.30 2201.70 2007.80 2172.10 C 1928.70 2130.10 1812.50 2142.40 1792.70 2246.30 C 1766.20 2389.10 1753.10 2538.60 1681.30 2660.20 C 1787.80 2527.50 1889.40 2385.40 1939.80 2293.00 C 2058.50 2368.20 2298.20 2444.00 2515.00 2414.00 C 2731.80 2384.00 2858.70 2406.90 2860.50 2253.60 C 2860.50 2249.40 2860.50 2245.20 2860.50 2241.10 C 2845.30 2292.60 2817.50 2335.20 2766.90 2347.60 Z" fill="#bf840f" fill-rule="nonzero" node-id="278" stroke="none" target-height="530.09985" target-width="1179.2" target-x="1681.3" target-y="2130.1"></path><path d="M 2002.00 2416.20 C 2002.00 2416.20 2433.40 2368.10 2532.10 2371.60 C 2630.80 2375.10 2869.80 2420.40 2869.80 2420.40 C 2869.80 2420.40 2911.00 2428.80 2891.00 2500.50 C 2871.00 2572.20 2812.80 2496.20 2723.50 2498.50 C 2634.20 2500.80 2521.40 2489.10 2521.40 2489.10 C 2521.40 2489.10 2015.50 2553.60 1983.80 2538.30 C 1952.20 2523.10 2002.00 2416.20 2002.00 2416.20 Z" fill="#3b546b" fill-rule="nonzero" node-id="280" stroke="none" target-height="204.09985" target-width="958.80005" target-x="1952.2" target-y="2368.1"></path><path d="M 1996.90 2512.00 L 2553.10 2451.70 C 2553.10 2451.70 2859.70 2491.90 2858.50 2522.50 C 2857.40 2553.00 2345.20 2607.80 2275.50 2595.30 C 2205.70 2582.70 1993.70 2539.50 1996.90 2512.00 Z" fill="#102140" fill-rule="nonzero" node-id="282" stroke="none" target-height="156.1001" target-width="866" target-x="1993.7" target-y="2451.7"></path><path d="M 2160.00 2549.10 C 2158.80 2559.60 2147.70 2597.00 2161.80 2615.60 C 2180.90 2640.90 2317.60 2598.20 2334.70 2601.30 C 2351.60 2604.30 2423.00 2613.20 2501.00 2618.90 L 2504.20 2511.80 L 2160.00 2549.10 Z" fill="#3b546b" fill-rule="nonzero" node-id="284" stroke="none" target-height="129.09985" target-width="356.5" target-x="2147.7" target-y="2511.8"></path><path d="M 2700.20 2555.60 C 2700.90 2536.50 2508.70 2511.20 2508.70 2511.20 L 2504.10 2511.70 L 2500.90 2618.80 C 2575.10 2624.10 2655.30 2626.50 2700.10 2618.00 C 2703.30 2593.80 2700.00 2560.30 2700.20 2555.60 Z" fill="#2c3e4f" fill-rule="nonzero" node-id="286" stroke="none" target-height="115.30005" target-width="202.40015" target-x="2500.9" target-y="2511.2"></path><path d="M 2160.00 2611.50 L 2239.80 2602.80 L 2508.70 2573.60 C 2508.70 2573.60 2700.90 2598.80 2700.20 2618.00 C 2699.50 2637.10 2378.40 2671.50 2334.60 2663.70 C 2290.90 2655.90 2158.00 2628.80 2160.00 2611.50 Z" fill="#081426" fill-rule="nonzero" node-id="288" stroke="none" target-height="97.8999" target-width="542.8999" target-x="2158" target-y="2573.6"></path><path d="M 2201.10 2612.70 L 2268.80 2605.40 L 2496.80 2580.70 C 2496.80 2580.70 2659.80 2602.10 2659.10 2618.30 C 2658.50 2634.50 2386.30 2663.70 2349.20 2657.00 C 2312.10 2650.30 2199.40 2627.40 2201.10 2612.70 Z" fill="#081426" fill-rule="nonzero" node-id="290" stroke="none" target-height="83" target-width="460.40015" target-x="2199.4" target-y="2580.7"></path><path d="M 2390.10 2782.40 C 2390.10 2779.50 2395.90 2773.60 2398.90 2767.80 C 2406.30 2718.40 2413.70 2652.30 2452.90 2619.00 C 2420.90 2614.40 2377.00 2625.80 2360.00 2642.10 C 2360.00 2642.10 2352.50 2991.60 2351.00 3160.70 C 2405.70 3043.90 2374.30 2910.80 2390.10 2782.40 Z" fill="#c7c7c7" fill-rule="nonzero" node-id="292" stroke="none" target-height="546.30005" target-width="101.8999" target-x="2351" target-y="2614.4"></path><path d="M 2452.90 2619.00 C 2413.70 2652.30 2406.30 2718.40 2398.90 2767.80 C 2396.00 2773.60 2390.10 2779.50 2390.10 2782.40 C 2374.40 2910.80 2405.70 3043.90 2351.00 3160.60 C 2350.60 3210.10 2350.70 3244.10 2351.70 3249.40 C 2357.10 3266.60 2372.10 3275.80 2389.20 3278.50 C 2397.10 3269.00 2402.50 3256.60 2404.70 3240.70 C 2436.30 3034.10 2400.10 2824.70 2479.30 2629.10 C 2472.70 2623.70 2463.40 2620.50 2452.90 2619.00 Z" fill="#d9d9d9" fill-rule="nonzero" node-id="294" stroke="none" target-height="659.5" target-width="128.69995" target-x="2350.6" target-y="2619"></path><path d="M 2479.30 2629.10 C 2400.20 2824.70 2436.30 3034.10 2404.70 3240.70 C 2402.50 3256.60 2397.00 3269.00 2389.20 3278.50 C 2421.50 3283.60 2461.60 3265.60 2460.10 3234.10 L 2488.20 2641.70 C 2486.50 2636.60 2483.40 2632.40 2479.30 2629.10 Z" fill="#102140" fill-rule="nonzero" node-id="296" stroke="none" target-height="654.5" target-width="99" target-x="2389.2" target-y="2629.1"></path><path d="M 2419.30 3360.40 C 2416.50 3318.80 2403.30 3279.90 2411.90 3238.50 L 2351.20 3244.10 C 2351.20 3244.10 2202.90 3372.90 2120.60 3463.00 C 2075.70 3512.20 2067.90 3521.20 2036.80 3558.70 C 2036.80 3558.70 2141.40 3543.70 2185.50 3529.50 C 2323.10 3485.30 2347.40 3453.50 2404.90 3430.40 C 2414.80 3409.20 2420.20 3385.50 2419.30 3360.40 Z" fill="#6584c6" fill-rule="nonzero" node-id="298" stroke="none" target-height="320.19995" target-width="383.3999" target-x="2036.8" target-y="3238.5"></path><path d="M 2460.00 3234.10 L 2411.90 3238.50 C 2403.20 3279.80 2416.50 3318.80 2419.30 3360.40 C 2420.20 3385.60 2414.90 3409.30 2404.80 3430.50 C 2423.50 3423.00 2445.60 3416.40 2476.30 3410.70 C 2602.40 3386.90 2666.90 3415.40 2768.50 3424.10 L 2460.00 3234.10 Z" fill="#081426" fill-rule="nonzero" node-id="300" stroke="none" target-height="196.3999" target-width="365.30005" target-x="2403.2" target-y="3234.1"></path><path d="M 1765.50 3437.90 C 1799.20 3413.50 1813.10 3379.20 1832.90 3347.90 C 1831.90 3341.70 1830.50 3336.40 1828.80 3332.20 C 1811.80 3291.10 1819.40 3269.90 1819.40 3269.90 L 1697.80 3249.30 C 1697.80 3249.30 1676.90 3434.40 1673.60 3453.20 C 1673.10 3455.40 1672.50 3457.50 1671.90 3459.60 C 1703.30 3465.90 1738.50 3456.50 1765.50 3437.90 Z" fill="#fc9590" fill-rule="nonzero" node-id="302" stroke="none" target-height="216.59985" target-width="161" target-x="1671.9" target-y="3249.3"></path><path d="M 1832.90 3347.90 C 1813.10 3379.20 1799.20 3413.50 1765.50 3437.90 C 1738.40 3456.50 1703.30 3465.80 1671.90 3459.60 C 1637.00 3594.40 1593.00 3658.50 1616.70 3677.60 C 1640.80 3697.00 1763.60 3639.40 1782.40 3498.40 C 1798.30 3595.90 1798.30 3595.90 1798.30 3595.90 C 1798.30 3595.90 1821.80 3600.60 1835.90 3580.00 C 1826.40 3529.50 1842.00 3402.90 1832.90 3347.90 Z" fill="#1a1a1a" fill-rule="nonzero" node-id="304" stroke="none" target-height="349.1001" target-width="249" target-x="1593" target-y="3347.9"></path><path d="M 2680.30 1838.30 C 2672.90 1835.80 2660.50 1838.30 2660.50 1845.70 C 2655.60 1877.80 2650.60 1907.50 2655.60 1939.70 C 2678.10 2070.20 2663.80 2194.50 2681.50 2320.10 C 2714.90 2330.80 2743.60 2294.10 2743.60 2294.10 C 2743.60 2294.10 2721.00 2051.20 2718.80 2004.40 C 2716.60 1957.60 2747.20 1981.60 2803.60 2046.70 C 2878.60 2134.60 2954.60 2131.20 2964.40 2100.10 C 2870.50 2008.60 2793.90 1909.90 2680.30 1838.30 Z" fill="#102140" fill-rule="nonzero" node-id="306" stroke="none" target-height="495" target-width="313.7998" target-x="2650.6" target-y="1835.8"></path><path d="M 2906.90 2000.00 C 2906.90 2000.00 2798.80 1893.40 2696.00 1815.80 C 2593.20 1738.20 2612.60 1844.00 2612.60 1844.00 L 2659.60 2305.80 C 2667.00 2313.30 2674.30 2317.70 2681.50 2320.00 C 2663.80 2194.40 2678.10 2070.10 2655.60 1939.60 C 2650.70 1907.50 2655.60 1877.80 2660.50 1845.60 C 2660.50 1838.20 2672.90 1835.70 2680.30 1838.20 C 2793.90 1909.80 2870.50 2008.50 2964.30 2099.90 C 2964.60 2098.80 2964.90 2097.70 2965.10 2096.60 C 2970.40 2062.60 2906.90 2000.00 2906.90 2000.00 Z" fill="#4c6c8a" fill-rule="nonzero" node-id="308" stroke="none" target-height="581.80005" target-width="377.19995" target-x="2593.2" target-y="1738.2"></path><path d="M 2471.80 1842.00 C 2471.80 1842.00 2481.50 1784.70 2430.90 1712.50 C 2360.00 1616.40 2399.60 1560.90 2430.90 1514.20 C 2462.20 1467.50 2476.40 1374.10 2476.40 1374.10 L 2490.60 1372.90 C 2490.60 1372.90 2487.10 1437.50 2461.20 1476.90 C 2435.30 1516.30 2404.00 1578.60 2411.00 1636.20 C 2418.20 1693.70 2487.40 1720.10 2471.80 1842.00 Z" fill="#d1334a" fill-rule="nonzero" node-id="310" stroke="none" target-height="469.09998" target-width="130.6001" target-x="2360" target-y="1372.9"></path><path d="M 1866.90 3153.60 C 1906.50 3044.80 1931.20 2936.00 1958.40 2822.30 C 1963.30 2802.50 1965.80 2780.30 1968.30 2760.50 C 1988.10 2594.80 2020.20 2434.10 2007.90 2268.50 C 2005.40 2248.70 1993.10 2228.90 1980.70 2211.60 C 1974.80 2201.80 1972.00 2188.90 1967.40 2182.80 C 1838.20 2160.70 1805.50 2241.30 1792.40 2329.40 C 1778.30 2424.60 1648.70 3221.80 1677.80 3245.90 C 1677.80 3245.90 1734.90 3312.30 1818.00 3286.00 C 1825.80 3267.70 1835.40 3250.20 1842.20 3232.80 C 1852.10 3208.00 1857.00 3178.30 1866.90 3153.60 Z" fill="#ffb114" fill-rule="nonzero" node-id="312" stroke="none" target-height="1151.6001" target-width="371.5" target-x="1648.7" target-y="2160.7"></path><path d="M 2000.40 2190.10 C 1988.70 2187.00 1977.80 2184.50 1967.40 2182.80 C 1972.00 2189.00 1974.80 2201.80 1980.70 2211.60 C 1993.10 2228.90 2005.40 2248.70 2007.90 2268.50 C 2020.30 2434.20 1988.10 2594.90 1968.30 2760.50 C 1965.80 2780.30 1963.40 2802.50 1958.40 2822.30 C 1931.20 2936.00 1906.50 3044.80 1866.90 3153.60 C 1857.00 3178.30 1852.10 3208.00 1842.20 3232.70 C 1835.50 3250.20 1825.80 3267.70 1818.00 3285.90 C 1830.60 3281.90 1843.90 3275.80 1857.60 3266.90 C 1922.80 3087.20 2157.20 2232.40 2000.40 2190.10 Z" fill="#d99611" fill-rule="nonzero" node-id="314" stroke="none" target-height="1103.0999" target-width="339.19995" target-x="1818" target-y="2182.8"></path><path d="M 2444.50 1136.10 L 2394.10 1172.30 C 2394.10 1172.30 2398.80 1180.60 2401.50 1209.20 C 2443.40 1200.20 2449.20 1144.20 2444.50 1136.10 Z" fill="#db6767" fill-rule="nonzero" node-id="316" stroke="none" target-height="73.099976" target-width="55.099854" target-x="2394.1" target-y="1136.1"></path><path d="M 1884.60 1790.10 L 1884.60 1730.40 C 1884.60 1721.10 1895.20 1715.90 1902.60 1721.60 L 1957.20 1764.00 C 1964.30 1769.50 1962.30 1780.70 1953.70 1783.40 L 1899.10 1800.60 C 1891.90 1803.00 1884.60 1797.60 1884.60 1790.10 Z" fill="url(#SVGID_5_)" fill-rule="nonzero" node-id="318" stroke="none" target-height="87.099976" target-width="79.70007" target-x="1884.6" target-y="1715.9"></path><path d="M 2451.40 1463.10 C 2451.40 1467.96 2447.46 1471.90 2442.60 1471.90 C 2437.74 1471.90 2433.80 1467.96 2433.80 1463.10 C 2433.80 1458.24 2437.74 1454.30 2442.60 1454.30 C 2447.46 1454.30 2451.40 1458.24 2451.40 1463.10 Z" fill="#102140" fill-rule="nonzero" node-id="320" stroke="none" target-height="17.599976" target-width="17.599854" target-x="2433.8" target-y="1454.3"></path><path d="M 2391.20 1561.30 C 2391.20 1566.20 2387.20 1570.10 2382.40 1570.10 C 2377.50 1570.10 2373.60 1566.10 2373.60 1561.30 C 2373.60 1556.40 2377.60 1552.50 2382.40 1552.50 C 2387.30 1552.50 2391.20 1556.40 2391.20 1561.30 Z" fill="#102140" fill-rule="nonzero" node-id="322" stroke="none" target-height="17.599976" target-width="17.599854" target-x="2373.6" target-y="1552.5"></path><path d="M 2412.80 1700.40 C 2412.80 1705.30 2408.80 1709.20 2404.00 1709.20 C 2399.10 1709.20 2395.20 1705.20 2395.20 1700.40 C 2395.20 1695.50 2399.20 1691.60 2404.00 1691.60 C 2408.90 1691.60 2412.80 1695.50 2412.80 1700.40 Z" fill="#102140" fill-rule="nonzero" node-id="324" stroke="none" target-height="17.599976" target-width="17.600098" target-x="2395.2" target-y="1691.6"></path><path d="M 2458.60 1821.70 C 2458.60 1826.56 2454.66 1830.50 2449.80 1830.50 C 2444.94 1830.50 2441.00 1826.56 2441.00 1821.70 C 2441.00 1816.84 2444.94 1812.90 2449.80 1812.90 C 2454.66 1812.90 2458.60 1816.84 2458.60 1821.70 Z" fill="#102140" fill-rule="nonzero" node-id="326" stroke="none" target-height="17.599976" target-width="17.600098" target-x="2441" target-y="1812.9"></path><path d="M 1399.20 658.40 L 1640.70 1357.00 L 1619.30 1222.70 L 1488.90 880.60 Z" fill="#ffffff" fill-rule="nonzero" node-id="328" stroke="none" target-height="698.6" target-width="241.5" target-x="1399.2" target-y="658.4"></path><path d="M 1570.90 701.90 L 1698.10 1112.60 L 1673.60 935.80 L 1543.10 593.80 Z" fill="#ffffff" fill-rule="nonzero" node-id="330" stroke="none" target-height="518.8" target-width="155" target-x="1543.1" target-y="593.8"></path><path d="M 1395.40 1836.10 L 1522.60 2246.80 L 1498.10 2070.00 L 1367.60 1728.00 Z" fill="#ffffff" fill-rule="nonzero" node-id="332" stroke="none" target-height="518.80005" target-width="155" target-x="1367.6" target-y="1728"></path><path d="M 3903.80 1400.50 C 3903.80 1471.25 3846.45 1528.60 3775.70 1528.60 C 3704.95 1528.60 3647.60 1471.25 3647.60 1400.50 C 3647.60 1329.75 3704.95 1272.40 3775.70 1272.40 C 3846.45 1272.40 3903.80 1329.75 3903.80 1400.50 Z" fill="url(#SVGID_6_)" fill-rule="nonzero" node-id="334" stroke="none" target-height="256.19995" target-width="256.19995" target-x="3647.6" target-y="1272.4"></path><path d="M 548.30 2322.30 C 548.30 2447.17 447.07 2548.40 322.20 2548.40 C 197.33 2548.40 96.10 2447.17 96.10 2322.30 C 96.10 2197.43 197.33 2096.20 322.20 2096.20 C 447.07 2096.20 548.30 2197.43 548.30 2322.30 Z" fill="url(#SVGID_7_)" fill-rule="nonzero" node-id="336" stroke="none" target-height="452.19995" target-width="452.19998" target-x="96.1" target-y="2096.2"></path><path d="M 3863.10 3564.00 C 3863.10 3600.78 3833.28 3630.60 3796.50 3630.60 C 3759.72 3630.60 3729.90 3600.78 3729.90 3564.00 C 3729.90 3527.22 3759.72 3497.40 3796.50 3497.40 C 3833.28 3497.40 3863.10 3527.22 3863.10 3564.00 Z" fill="url(#SVGID_8_)" fill-rule="nonzero" node-id="338" stroke="none" target-height="133.2002" target-width="133.2002" target-x="3729.9" target-y="3497.4"></path><path d="M 3870.60 2932.10 C 3870.60 3009.75 3807.65 3072.70 3730.00 3072.70 C 3652.35 3072.70 3589.40 3009.75 3589.40 2932.10 C 3589.40 2854.45 3652.35 2791.50 3730.00 2791.50 C 3807.65 2791.50 3870.60 2854.45 3870.60 2932.10 Z" fill="url(#SVGID_9_)" fill-rule="nonzero" node-id="340" stroke="none" target-height="281.19995" target-width="281.2002" target-x="3589.4" target-y="2791.5"></path></svg>