<?xml version="1.0" standalone="no"?><!DOCTYPE svg PUBLIC "-//W3C//DTD SVG 1.1//EN" "http://www.w3.org/Graphics/SVG/1.1/DTD/svg11.dtd"><svg height="4000" node-id="1" sillyvg="true" template-height="4000" template-width="4000" version="1.1" viewBox="0 0 4000 4000" width="4000" xmlns="http://www.w3.org/2000/svg" xmlns:xlink="http://www.w3.org/1999/xlink"><defs node-id="133"><linearGradient gradientUnits="userSpaceOnUse" id="SVGID_1_" node-id="6" spreadMethod="pad" x1="431.9344" x2="3783.361" y1="2062.6777" y2="2062.6777"><stop offset="0" stop-color="#68b2fc"></stop><stop offset="1" stop-color="#529bf7"></stop></linearGradient><linearGradient gradientUnits="userSpaceOnUse" id="SVGID_2_" node-id="10" spreadMethod="pad" x1="3564.548" x2="3895.48" y1="1427.4198" y2="1427.4198"><stop offset="0" stop-color="#68b2fc"></stop><stop offset="1" stop-color="#529bf7"></stop></linearGradient><linearGradient gradientUnits="userSpaceOnUse" id="SVGID_3_" node-id="14" spreadMethod="pad" x1="171.86" x2="3867.606" y1="1953.4827" y2="1953.4827"><stop offset="0" stop-color="#4085f0"></stop><stop offset="1" stop-color="#275dc9"></stop></linearGradient><linearGradient gradientUnits="userSpaceOnUse" id="SVGID_4_" node-id="124" spreadMethod="pad" x1="3500.713" x2="3664.0842" y1="3344.008" y2="3344.008"><stop offset="0" stop-color="#4085f0"></stop><stop offset="1" stop-color="#275dc9"></stop></linearGradient><linearGradient gradientUnits="userSpaceOnUse" id="SVGID_5_" node-id="128" spreadMethod="pad" x1="104.5201" x2="512.6696" y1="2023.2799" y2="2023.2799"><stop offset="0" stop-color="#68b2fc"></stop><stop offset="1" stop-color="#529bf7"></stop></linearGradient></defs><path d="M 1950.10 1954.70 C 1950.10 1954.70 1982.80 2036.90 2049.90 2045.30 C 2048.40 2007.90 2048.40 2007.90 2048.40 2007.90 C 2048.40 2007.90 1969.00 1985.50 1950.10 1954.70 Z" fill="#db6767" fill-rule="nonzero" node-id="166" stroke="none" target-height="90.6001" target-width="99.79993" target-x="1950.1" target-y="1954.7"></path><g node-id="418"><path d="M 632.90 1313.00 C 572.70 1460.60 502.10 1671.60 464.60 1932.70 C 439.90 2104.50 405.50 2358.70 464.60 2659.50 C 489.30 2785.20 571.10 3201.50 870.00 3485.80 C 1234.70 3832.60 1835.60 3900.10 2407.60 3700.00 C 2664.60 3779.10 2990.90 3835.70 3172.60 3669.40 C 3315.50 3538.50 3269.90 3360.20 3310.30 3042.00 C 3411.80 2242.10 3868.40 2041.40 3769.30 1626.60 C 3728.80 1456.90 3587.90 1220.60 3088.50 1006.90 C 2994.90 861.30 2752.00 531.30 2315.90 387.20 C 1785.50 212.00 1076.30 347.00 778.20 823.30 C 667.70 999.90 638.80 1183.20 632.90 1313.00 Z" fill="url(#SVGID_1_)" fill-rule="nonzero" group-id="1" node-id="170" stroke="none" target-height="3688.1" target-width="3462.9" target-x="405.5" target-y="212"></path><path d="M 3895.50 1427.40 C 3895.50 1518.03 3821.40 1591.50 3730.00 1591.50 C 3638.60 1591.50 3564.50 1518.03 3564.50 1427.40 C 3564.50 1336.77 3638.60 1263.30 3730.00 1263.30 C 3821.40 1263.30 3895.50 1336.77 3895.50 1427.40 Z" fill="url(#SVGID_2_)" fill-rule="nonzero" group-id="1" node-id="172" stroke="none" target-height="328.19995" target-width="331" target-x="3564.5" target-y="1263.3"></path><path d="M 3140.90 3327.20 C 3226.20 3317.20 3302.30 3265.90 3359.30 3201.70 C 3416.30 3137.50 3456.80 3060.70 3496.80 2984.70 C 3574.60 2836.70 3652.40 2688.70 3730.20 2540.70 C 3779.20 2447.60 3828.60 2353.10 3852.30 2250.60 C 3890.70 2084.30 3855.80 1902.30 3758.50 1762.00 C 3677.60 1645.30 3559.50 1560.70 3453.70 1466.10 C 3347.80 1371.40 3248.30 1256.30 3225.80 1116.10 C 3217.10 1061.80 3220.40 1005.80 3207.70 952.30 C 3173.00 805.50 3026.00 710.60 2879.40 674.90 C 2732.80 639.20 2579.10 647.30 2430.20 622.80 C 2281.30 598.30 2176.50 477.20 2054.10 389.00 C 1951.60 315.00 1846.30 239.70 1724.60 205.40 C 1602.90 171.10 1459.40 185.80 1369.30 274.40 C 1265.90 376.10 1258.30 543.30 1168.40 657.20 C 1040.60 819.10 790.40 826.30 640.00 967.50 C 530.50 1070.40 491.50 1230.50 497.60 1380.70 C 503.70 1530.90 548.80 1676.20 583.20 1822.50 C 617.60 1968.80 641.50 2122.60 605.10 2268.40 C 589.30 2331.80 560.80 2392.30 520.80 2444.00 C 505.00 2464.30 487.20 2488.40 465.70 2502.20 C 440.70 2518.30 412.50 2528.90 387.70 2546.10 C 284.40 2617.80 205.30 2731.50 186.90 2856.80 C 175.50 2934.30 160.50 3003.60 185.00 3081.60 C 223.20 3203.00 329.80 3294.40 448.80 3339.40 C 567.80 3384.40 698.50 3388.60 825.50 3379.80 C 918.80 3373.30 1013.30 3360.30 1105.00 3378.50 C 1269.10 3411.00 1396.50 3536.30 1543.10 3617.00 C 1838.80 3779.60 2231.50 3744.40 2493.40 3531.70 C 2589.80 3581.20 2690.60 3610.70 2799.00 3610.90 C 2882.80 3611.10 2969.00 3594.90 3039.00 3548.80 C 3109.00 3502.60 3143.80 3410.90 3140.90 3327.20 Z" fill="url(#SVGID_3_)" fill-rule="nonzero" group-id="1" node-id="174" stroke="none" target-height="3608.5" target-width="3730.2" target-x="160.5" target-y="171.1"></path><path d="M 670.60 2947.80 L 1038.30 3327.90 L 1303.00 3120.40 L 834.60 2747.20 Z" fill="#53678f" fill-rule="nonzero" group-id="1" node-id="176" stroke="none" target-height="580.69995" target-width="632.4" target-x="670.6" target-y="2747.2"></path><path d="M 2174.40 1386.10 L 2558.10 1761.50 C 2558.10 1761.50 2658.50 1600.40 2663.20 1591.60 C 2667.80 1582.70 2303.80 1292.20 2303.80 1292.20 L 2174.40 1386.10 Z" fill="#53678f" fill-rule="nonzero" group-id="1" node-id="178" stroke="none" target-height="469.30005" target-width="493.40015" target-x="2174.4" target-y="1292.2"></path><path d="M 2865.10 2039.10 L 3248.80 2414.50 C 3248.80 2414.50 3349.20 2253.40 3353.90 2244.60 C 3358.60 2235.80 2994.50 1945.20 2994.50 1945.20 L 2865.10 2039.10 Z" fill="#53678f" fill-rule="nonzero" group-id="1" node-id="180" stroke="none" target-height="469.30005" target-width="493.5" target-x="2865.1" target-y="1945.2"></path><path d="M 1526.00 3610.20 L 1715.40 3401.70 C 1715.40 3401.70 1726.80 3615.90 1849.20 3652.30 C 1971.60 3688.60 2166.70 3652.30 2166.70 3652.30 L 2173.80 3690.60 C 2173.80 3690.50 1834.60 3804.40 1526.00 3610.20 Z" fill="#53678f" fill-rule="nonzero" group-id="1" node-id="182" stroke="none" target-height="402.69995" target-width="647.80005" target-x="1526" target-y="3401.7"></path><path d="M 1918.50 1615.00 L 2076.50 1732.00 L 2234.40 1532.90 L 2087.20 1431.20 Z" fill="#ffffff" fill-rule="nonzero" group-id="1" node-id="184" stroke="none" target-height="300.80005" target-width="315.8999" target-x="1918.5" target-y="1431.2"></path><path d="M 2062.20 2092.80 L 1868.30 2274.90 L 2134.50 2562.70 L 2338.00 2388.60 Z" fill="#8e9df4" fill-rule="nonzero" group-id="1" node-id="186" stroke="#1a1a1a" stroke-linecap="round" stroke-width="2" target-height="469.8999" target-width="469.69995" target-x="1868.3" target-y="2092.8"></path><path d="M 2264.20 2361.90 L 2127.50 2484.80 L 2114.10 2473.10 L 2254.70 2352.60 Z" fill="#ffffff" fill-rule="nonzero" group-id="1" node-id="188" stroke="none" target-height="132.19995" target-width="150.09985" target-x="2114.1" target-y="2352.6"></path><path d="M 2226.50 2321.70 L 2089.70 2444.70 L 2076.30 2432.90 L 2216.90 2312.40 Z" fill="#ffffff" fill-rule="nonzero" group-id="1" node-id="190" stroke="none" target-height="132.30005" target-width="150.19995" target-x="2076.3" target-y="2312.4"></path><g node-id="419"><path d="M 629.20 2906.50 L 869.50 2624.40 C 869.50 2624.40 906.00 2595.10 948.90 2638.00 C 991.80 2680.90 862.30 2793.20 829.40 2826.90 C 796.50 2860.50 692.10 2969.30 692.10 2969.30 L 629.20 2906.50 Z" fill="#102140" fill-rule="nonzero" group-id="1,2" node-id="194" stroke="none" target-height="374.19995" target-width="362.59998" target-x="629.2" target-y="2595.1"></path><path d="M 1063.90 3281.30 L 1304.20 2999.20 C 1304.20 2999.20 1340.70 2969.90 1383.60 3012.80 C 1426.50 3055.70 1297.00 3168.00 1264.10 3201.70 C 1231.20 3235.30 1126.80 3344.10 1126.80 3344.10 L 1063.90 3281.30 Z" fill="#102140" fill-rule="nonzero" group-id="1,2" node-id="196" stroke="none" target-height="374.2002" target-width="362.59998" target-x="1063.9" target-y="2969.9"></path><path d="M 569.10 3021.50 C 569.10 3030.10 1024.00 3422.80 1024.00 3422.80 C 1087.20 3469.10 1199.70 3382.30 1126.30 3311.70 L 659.00 2899.70 C 594.10 2852.00 519.70 2953.10 569.10 3021.50 Z" fill="#344059" fill-rule="nonzero" group-id="1,2" node-id="198" stroke="none" target-height="617.1001" target-width="679.99994" target-x="519.7" target-y="2852"></path></g><g node-id="420"><path d="M 1452.50 3561.30 L 1737.40 3246.10 C 1737.40 3246.10 1773.90 3216.80 1816.80 3259.70 C 1859.70 3302.60 1730.20 3414.90 1697.30 3448.60 C 1664.40 3482.20 1543.00 3617.00 1543.00 3617.00 L 1452.50 3561.30 Z" fill="#102140" fill-rule="nonzero" group-id="1,3" node-id="203" stroke="none" target-height="400.19995" target-width="407.19995" target-x="1452.5" target-y="3216.8"></path></g><path d="M 1301.10 3012.90 C 1298.20 3018.70 1286.60 3027.40 1275.00 3027.40 C 1205.30 3024.50 1135.60 3018.70 1065.90 2998.40 C 1010.70 2983.90 943.90 2960.60 917.80 2902.60 C 943.90 2960.70 1010.70 2983.90 1065.90 2998.40 C 1135.60 3018.70 1205.30 3024.50 1275.00 3027.40 C 1286.50 3027.40 1298.10 3018.70 1301.10 3012.90 C 1314.90 2995.60 1330.10 2980.60 1346.20 2967.00 C 1358.70 2936.30 1365.10 2906.70 1363.40 2885.20 C 1359.40 2834.30 1229.50 2755.40 1153.20 2706.90 C 1076.90 2658.50 949.70 2659.00 949.70 2659.00 C 921.70 2657.90 866.70 2778.10 862.70 2878.80 C 858.70 2979.50 912.20 3019.10 939.00 3037.70 C 965.80 3056.30 1205.40 3131.50 1265.70 3082.00 C 1300.50 3053.40 1329.10 3009.10 1346.20 2967.00 C 1330.10 2980.60 1314.90 2995.60 1301.10 3012.90 Z" fill="#d9d9d9" fill-rule="nonzero" group-id="1" node-id="206" stroke="none" target-height="473.6001" target-width="506.39996" target-x="858.7" target-y="2657.9"></path><path d="M 2367.40 1178.00 C 2367.40 1178.00 2436.10 961.80 2496.10 949.80 C 2556.10 937.80 2674.60 965.20 2789.10 1081.60 C 2903.60 1198.10 3066.20 1346.30 2959.80 1467.90 C 2853.40 1589.50 2696.70 1625.70 2696.70 1625.70 L 2320.50 1243.90 L 2367.40 1178.00 Z" fill="#344059" fill-rule="nonzero" group-id="1" node-id="208" stroke="none" target-height="687.89996" target-width="745.69995" target-x="2320.5" target-y="937.8"></path><path d="M 3105.10 1765.90 C 3105.10 1765.90 3211.80 1588.80 3271.80 1576.70 C 3331.80 1564.70 3450.30 1592.10 3564.80 1708.50 C 3679.30 1825.00 3841.90 1973.20 3735.50 2094.80 C 3629.00 2216.60 3482.00 2289.30 3482.00 2289.30 L 3360.00 2397.80 L 2955.20 1891.70 L 3105.10 1765.90 Z" fill="#344059" fill-rule="nonzero" group-id="1" node-id="210" stroke="none" target-height="833.1001" target-width="886.69995" target-x="2955.2" target-y="1564.7"></path><path d="M 3133.80 2217.10 C 3178.60 2252.60 3234.90 2268.40 3292.60 2268.90 C 3324.90 2186.40 3359.30 2087.40 3354.50 2051.40 C 3345.70 1985.40 3276.10 1951.90 3276.10 1951.90 C 3276.10 1951.90 3087.80 1926.90 3060.10 1943.60 C 3032.40 1960.30 3003.00 2025.50 3003.00 2025.50 C 3003.00 2025.50 3001.90 2045.60 2999.60 2070.10 C 3010.50 2075.70 3021.60 2080.20 3029.30 2086.40 C 3069.90 2127.00 3093.10 2179.30 3133.80 2217.10 Z" fill="#ffde70" fill-rule="nonzero" group-id="1" node-id="212" stroke="none" target-height="341.99988" target-width="359.69995" target-x="2999.6" target-y="1926.9"></path><path d="M 3133.80 2217.10 C 3093.10 2179.30 3069.90 2127.10 3029.20 2086.40 C 3021.40 2080.20 3010.30 2075.60 2999.50 2070.10 C 2996.90 2098.30 2992.70 2132.30 2986.90 2148.20 C 3190.10 2346.00 3240.30 2394.90 3240.30 2394.90 C 3240.30 2394.90 3265.70 2337.60 3292.50 2268.90 C 3234.80 2268.40 3178.60 2252.60 3133.80 2217.10 Z" fill="#ffb114" fill-rule="nonzero" group-id="1" node-id="214" stroke="none" target-height="324.7998" target-width="305.6001" target-x="2986.9" target-y="2070.1"></path><path d="M 3300.50 2453.40 C 3300.50 2453.40 3493.60 2269.10 3522.10 2261.00 C 3550.70 2252.80 3568.50 2263.50 3578.30 2281.40 C 3588.10 2299.20 3578.30 2327.80 3568.50 2336.70 C 3558.70 2345.60 3367.70 2518.90 3367.70 2518.90 L 3300.50 2453.40 Z" fill="#102140" fill-rule="nonzero" group-id="1" node-id="216" stroke="none" target-height="266.09985" target-width="287.6001" target-x="3300.5" target-y="2252.8"></path><path d="M 1953.90 1210.00 L 988.70 2232.60 L 2355.10 3621.70 C 2340.80 3629.10 2326.30 3636.10 2311.50 3642.60 L 921.60 2233.40 L 1952.40 1141.20 L 3615.10 2759.70 C 3607.30 2774.60 3599.50 2789.40 3591.70 2804.30 L 1953.90 1210.00 Z" fill="#ffffff" fill-rule="nonzero" group-id="1" node-id="218" stroke="none" target-height="2501.4001" target-width="2693.5" target-x="921.6" target-y="1141.2"></path><path d="M 3591.60 2804.20 C 3560.00 2864.40 3528.40 2924.50 3496.80 2984.60 C 3456.90 3060.60 3416.30 3137.40 3359.30 3201.60 C 3302.30 3265.80 3226.20 3317.10 3140.90 3327.10 C 3143.80 3410.80 3109.00 3502.50 3039.00 3548.60 C 2969.00 3594.70 2882.90 3610.90 2799.10 3610.70 C 2690.70 3610.50 2589.90 3581.00 2493.50 3531.50 C 2451.50 3565.60 2406.10 3595.10 2358.40 3620.00 C 2357.30 3620.60 2356.20 3621.20 2355.20 3621.70 L 988.70 2232.60 L 1953.90 1210.00 L 3591.60 2804.20 Z" fill="#dbd2db" fill-rule="nonzero" group-id="1" node-id="220" stroke="none" target-height="2411.7" target-width="2602.9001" target-x="988.7" target-y="1210"></path><path d="M 1992.30 2286.80 C 1968.80 2273.10 1949.30 2252.80 1931.10 2231.30 C 1929.10 2235.50 1927.00 2239.80 1924.70 2244.10 C 1932.70 2247.20 1936.70 2264.60 1945.20 2279.30 C 1953.70 2294.00 2004.10 2330.20 2032.70 2319.90 C 2049.50 2313.90 2057.80 2301.10 2061.80 2291.50 C 2037.30 2288.40 2011.10 2297.50 1992.30 2286.80 Z" fill="#db6767" fill-rule="nonzero" group-id="1" node-id="222" stroke="none" target-height="98.8999" target-width="137.1001" target-x="1924.7" target-y="2231.3"></path><path d="M 2047.00 2219.10 C 1995.70 2180.70 1951.10 2179.80 1951.10 2179.80 C 1951.10 2179.80 1944.40 2203.40 1931.20 2231.30 C 1949.40 2252.80 1968.90 2273.10 1992.40 2286.80 C 2011.20 2297.50 2037.40 2288.50 2061.90 2291.60 C 2064.70 2284.90 2065.40 2279.80 2065.40 2279.80 C 2065.40 2279.80 2106.50 2303.00 2127.90 2313.70 C 2149.30 2324.40 2156.50 2312.40 2157.80 2301.70 C 2159.00 2290.90 2098.30 2257.50 2047.00 2219.10 Z" fill="#fc9590" fill-rule="nonzero" group-id="1" node-id="224" stroke="none" target-height="144.59985" target-width="227.80005" target-x="1931.2" target-y="2179.8"></path><path d="M 1053.70 1421.30 C 1053.70 1421.30 1061.70 1229.40 1155.40 1194.60 C 1225.00 1350.80 1225.00 1350.80 1225.00 1350.80 L 1053.70 1421.30 Z" fill="#102140" fill-rule="nonzero" group-id="1" node-id="226" stroke="none" target-height="226.70007" target-width="171.30005" target-x="1053.7" target-y="1194.6"></path><path d="M 1533.40 1194.70 C 1525.50 1110.10 1462.20 1035.20 1374.30 1037.70 C 1328.10 1081.00 1352.70 1159.00 1352.70 1159.00 L 1532.40 1339.90 C 1545.90 1295.30 1537.00 1237.40 1533.40 1194.70 Z" fill="#d1334a" fill-rule="nonzero" group-id="1" node-id="228" stroke="none" target-height="304.70007" target-width="217.80005" target-x="1328.1" target-y="1035.2"></path><path d="M 1652.50 1253.60 C 1620.40 1172.40 1515.90 987.70 1416.00 1015.30 C 1398.00 1020.30 1384.40 1028.10 1374.30 1037.70 C 1462.20 1035.20 1525.50 1110.10 1533.40 1194.70 C 1537.00 1237.40 1545.90 1295.30 1532.30 1339.90 L 1623.00 1431.20 C 1623.10 1431.20 1684.70 1334.80 1652.50 1253.60 Z" fill="#ef5164" fill-rule="nonzero" group-id="1" node-id="230" stroke="none" target-height="443.49994" target-width="310.3999" target-x="1374.3" target-y="987.7"></path><path d="M 1525.40 1251.70 C 1516.70 1245.90 1507.80 1240.30 1498.60 1235.40 C 1417.30 1188.90 1315.60 1194.70 1240.10 1244.10 C 1208.20 1264.40 1202.30 1308.00 1184.90 1331.20 C 1153.00 1371.90 1115.20 1412.50 1126.80 1467.70 C 1138.40 1508.40 1155.80 1546.10 1167.50 1586.80 C 1184.90 1653.60 1205.30 1714.60 1222.70 1778.50 C 1221.80 1778.50 1221.20 1778.50 1220.70 1778.50 C 1258.80 1820.70 1288.10 1845.10 1288.10 1845.10 L 1646.40 1465.50 L 1525.40 1251.70 Z" fill="#ef5164" fill-rule="nonzero" group-id="1" node-id="232" stroke="none" target-height="656.19995" target-width="531.2001" target-x="1115.2" target-y="1188.9"></path><path d="M 1167.40 1586.80 C 1155.80 1546.10 1138.40 1508.40 1126.70 1467.70 C 1115.10 1412.50 1152.80 1371.90 1184.80 1331.20 C 1202.20 1308.00 1208.00 1264.40 1240.00 1244.10 C 1315.50 1194.70 1417.20 1188.90 1498.50 1235.40 C 1507.70 1240.30 1516.60 1245.90 1525.30 1251.70 L 1519.90 1242.20 C 1519.90 1242.20 1483.80 1131.30 1327.60 1126.00 C 1141.10 1119.60 1092.00 1232.20 1092.00 1232.20 L 1160.50 1316.50 C 1160.50 1316.50 1160.50 1316.50 1052.10 1340.60 C 1023.60 1525.10 1141.30 1690.50 1220.60 1778.50 C 1221.10 1778.50 1221.70 1778.50 1222.60 1778.50 C 1205.20 1714.60 1184.90 1653.60 1167.40 1586.80 Z" fill="#eb485c" fill-rule="nonzero" group-id="1" node-id="234" stroke="none" target-height="658.9" target-width="501.70007" target-x="1023.6" target-y="1119.6"></path><path d="M 1478.20 1990.50 C 1524.70 2060.20 1594.40 2092.20 1664.10 2127.00 C 1672.80 2132.80 1687.30 2138.60 1699.00 2144.40 C 1771.60 2185.10 1844.20 2211.20 1928.50 2231.50 C 1933.20 2232.80 1937.80 2234.50 1942.50 2236.20 C 1958.70 2213.20 1978.10 2178.80 1957.90 2169.00 C 1926.70 2153.80 1702.20 2047.20 1631.20 1945.50 C 1560.20 1843.80 1494.60 1775.50 1574.10 1647.90 L 1591.10 1626.90 L 1632.60 1561.50 L 1230.90 1499.10 C 1230.90 1499.10 1235.40 1529.20 1247.80 1577.00 C 1254.10 1584.70 1260.00 1592.30 1263.40 1601.20 C 1315.60 1743.60 1394.00 1859.80 1478.20 1990.50 Z" fill="#ef5164" fill-rule="nonzero" group-id="1" node-id="236" stroke="none" target-height="737.1" target-width="747.19995" target-x="1230.9" target-y="1499.1"></path><path d="M 1928.40 2231.60 C 1844.20 2211.30 1771.60 2185.10 1698.90 2144.50 C 1687.30 2138.70 1672.80 2132.90 1664.00 2127.10 C 1594.30 2092.20 1524.60 2060.30 1478.10 1990.60 C 1393.90 1859.90 1315.40 1743.70 1263.20 1601.40 C 1259.90 1592.50 1254.00 1584.90 1247.60 1577.20 C 1289.30 1738.60 1420.40 2102.90 1768.90 2202.00 C 1925.50 2258.20 1925.50 2258.20 1925.50 2258.20 C 1925.50 2258.20 1933.40 2249.00 1942.30 2236.40 C 1937.70 2234.60 1933.10 2232.90 1928.40 2231.60 Z" fill="#d1334a" fill-rule="nonzero" group-id="1" node-id="238" stroke="none" target-height="681" target-width="694.7001" target-x="1247.6" target-y="1577.2"></path><path d="M 1694.00 1452.30 C 1694.00 1452.30 1652.50 1429.70 1638.20 1412.30 C 1598.60 1427.40 1565.50 1426.20 1553.40 1463.10 C 1541.40 1499.90 1519.30 1578.00 1534.70 1584.40 C 1550.10 1590.90 1589.10 1623.50 1589.10 1623.50 L 1694.00 1452.30 Z" fill="#ffffff" fill-rule="nonzero" group-id="1" node-id="240" stroke="none" target-height="211.19995" target-width="174.69995" target-x="1519.3" target-y="1412.3"></path><path d="M 2329.10 1698.90 C 2328.20 1676.10 2265.30 1581.10 2265.30 1579.30 L 2255.00 1581.70 C 2274.80 1637.40 2322.30 1700.50 2279.90 1737.90 C 2273.90 1743.90 2266.50 1748.00 2258.30 1750.90 C 2261.30 1751.90 2264.10 1752.70 2266.40 1753.00 C 2286.60 1755.70 2300.60 1751.10 2315.70 1744.00 C 2330.80 1736.80 2329.90 1721.60 2329.10 1698.90 Z" fill="#db6767" fill-rule="nonzero" group-id="1" node-id="242" stroke="none" target-height="176.3999" target-width="75.80005" target-x="2255" target-y="1579.3"></path><path d="M 2254.90 1581.70 L 2203.20 1593.60 C 2203.20 1593.60 2218.40 1644.50 2223.30 1658.70 C 2228.20 1673.00 2220.20 1683.70 2206.30 1700.60 C 2194.10 1715.60 2235.00 1742.90 2258.20 1750.80 C 2266.40 1747.80 2273.80 1743.80 2279.80 1737.80 C 2322.20 1700.40 2274.80 1637.40 2254.90 1581.70 Z" fill="#fc9590" fill-rule="nonzero" group-id="1" node-id="244" stroke="none" target-height="169.1001" target-width="128.09985" target-x="2194.1" target-y="1581.7"></path><path d="M 2145.20 1331.80 L 2334.60 1151.80 C 2334.60 1151.80 2344.00 1139.10 2377.40 1166.50 C 2410.90 1193.90 2392.10 1209.30 2384.80 1218.00 C 2377.40 1226.70 2198.90 1386.00 2198.90 1386.00 L 2145.20 1331.80 Z" fill="#102140" fill-rule="nonzero" group-id="1" node-id="246" stroke="none" target-height="246.90002" target-width="265.69995" target-x="2145.2" target-y="1139.1"></path><path d="M 2630.70 1308.90 C 2557.50 1264.30 2461.10 1258.00 2454.00 1256.30 C 2454.00 1256.30 2382.20 1328.60 2371.40 1367.40 C 2365.00 1390.80 2357.70 1443.50 2353.00 1481.80 C 2418.60 1565.80 2498.40 1642.80 2610.90 1668.10 C 2616.70 1671.00 2628.30 1676.80 2634.10 1676.80 C 2655.90 1679.40 2678.50 1681.80 2701.10 1682.40 C 2725.90 1652.90 2752.80 1604.50 2765.40 1545.30 C 2784.20 1457.00 2703.90 1353.50 2630.70 1308.90 Z" fill="#ffffff" fill-rule="nonzero" group-id="1" node-id="248" stroke="none" target-height="426.09998" target-width="431.19995" target-x="2353" target-y="1256.3"></path><path d="M 2611.00 1668.10 C 2498.50 1642.80 2418.70 1565.70 2353.10 1481.80 C 2350.00 1507.10 2347.90 1526.10 2347.90 1526.10 L 2589.70 1761.50 C 2589.70 1761.50 2639.90 1724.70 2668.00 1711.30 C 2677.30 1706.90 2689.00 1696.90 2701.20 1682.40 C 2678.60 1681.70 2656.00 1679.40 2634.20 1676.80 C 2628.40 1676.80 2616.80 1671.00 2611.00 1668.10 Z" fill="#d9d9d9" fill-rule="nonzero" group-id="1" node-id="250" stroke="none" target-height="279.69995" target-width="353.30005" target-x="2347.9" target-y="1481.8"></path><path d="M 2464.20 1508.90 C 2464.20 1508.90 2474.50 1581.50 2485.90 1591.60" fill="none" group-id="1" node-id="252" stroke="#bfbeba" stroke-linecap="round" stroke-width="2" target-height="82.69995" target-width="21.699951" target-x="2464.2" target-y="1508.9"></path><path d="M 2105.60 1360.20 C 2123.00 1435.70 2160.80 1502.50 2184.00 1575.10 C 2187.70 1586.10 2192.50 1597.10 2195.50 1608.80 C 2227.20 1619.60 2274.30 1584.10 2274.30 1584.10 C 2274.30 1584.10 2274.30 1584.10 2266.90 1563.40 C 2258.20 1536.00 2210.70 1424.20 2210.70 1424.20 C 2210.70 1424.20 2210.70 1424.20 2259.60 1424.00 C 2307.80 1426.50 2380.10 1395.40 2380.10 1395.40 L 2523.60 1269.60 C 2523.60 1269.60 2523.10 1269.40 2522.30 1269.20 C 2519.80 1269.80 2517.30 1270.20 2515.10 1270.20 C 2372.80 1281.80 2230.50 1293.40 2105.60 1360.20 Z" fill="#ffffff" fill-rule="nonzero" group-id="1" node-id="254" stroke="none" target-height="350.40002" target-width="418" target-x="2105.6" target-y="1269.2"></path><path d="M 2390.90 1244.20 C 2354.80 1241.50 2114.40 1325.20 2087.70 1354.60 C 2060.90 1384.00 2186.80 1604.20 2186.80 1604.20 C 2189.60 1606.20 2192.50 1607.70 2195.70 1608.80 C 2192.60 1597.10 2187.80 1586.10 2184.20 1575.10 C 2161.00 1502.50 2123.20 1435.70 2105.80 1360.20 C 2230.70 1293.40 2373.00 1281.80 2515.30 1270.20 C 2517.50 1270.20 2520.00 1269.90 2522.50 1269.20 C 2511.50 1265.70 2432.60 1240.90 2390.90 1244.20 Z" fill="#d9d9d9" fill-rule="nonzero" group-id="1" node-id="256" stroke="none" target-height="367.90002" target-width="461.6001" target-x="2060.9" target-y="1240.9"></path><path d="M 2583.00 1755.50 L 2772.40 1575.50 C 2772.40 1575.50 2781.80 1562.80 2815.20 1590.20 C 2848.70 1617.60 2829.90 1633.00 2822.60 1641.70 C 2815.20 1650.40 2636.70 1809.70 2636.70 1809.70 L 2583.00 1755.50 Z" fill="#102140" fill-rule="nonzero" group-id="1" node-id="258" stroke="none" target-height="246.8999" target-width="265.69995" target-x="2583" target-y="1562.8"></path><path d="M 2731.80 1512.20 L 2613.80 1597.60 C 2613.80 1597.60 2509.40 1727.40 2406.70 1789.90 C 2304.10 1852.40 2246.00 1912.20 2246.00 1912.20 C 2246.00 1912.20 2280.70 1939.20 2312.30 1948.70 C 2322.10 1947.10 2331.00 1942.30 2337.90 1935.40 C 2436.70 1859.90 2532.50 1798.90 2642.90 1737.90 C 2684.60 1715.70 2702.40 1669.50 2731.80 1630.00 C 2750.60 1582.50 2758.80 1545.50 2731.80 1512.20 Z" fill="#ffffff" fill-rule="nonzero" group-id="1" node-id="260" stroke="none" target-height="436.5" target-width="512.80005" target-x="2246" target-y="1512.2"></path><path d="M 2642.90 1737.80 C 2532.50 1798.80 2436.70 1859.80 2337.90 1935.30 C 2331.00 1942.20 2322.10 1947.00 2312.30 1948.60 C 2319.70 1950.80 2326.90 1952.10 2333.40 1951.80 C 2366.40 1925.50 2508.50 1828.90 2561.90 1807.70 C 2615.30 1786.40 2694.40 1719.40 2724.30 1648.00 C 2726.90 1641.80 2729.40 1635.80 2731.70 1629.90 C 2702.40 1669.40 2684.60 1715.60 2642.90 1737.80 Z" fill="#d9d9d9" fill-rule="nonzero" group-id="1" node-id="262" stroke="none" target-height="322.19995" target-width="419.3999" target-x="2312.3" target-y="1629.9"></path><path d="M 2533.50 1494.50 C 2560.30 1494.10 2583.00 1458.30 2583.00 1458.30 L 2574.50 1419.00 L 2409.40 1419.00 C 2409.40 1419.00 2440.20 1511.80 2481.70 1516.30 C 2523.20 1520.80 2547.30 1476.10 2547.30 1476.10" fill="#fc9590" fill-rule="nonzero" group-id="1" node-id="264" stroke="none" target-height="101.80005" target-width="173.6001" target-x="2409.4" target-y="1419"></path><path d="M 2306.50 1919.40 C 2295.20 1911.70 2279.60 1910.40 2261.00 1913.50 C 2261.00 1913.50 2188.00 1966.40 2176.70 2004.50 C 2165.30 2042.60 2156.60 2131.70 2172.70 2133.00 C 2188.80 2134.30 2199.20 2122.30 2199.00 2092.80 C 2198.80 2063.40 2213.50 2025.20 2215.60 2027.20 C 2222.40 2033.40 2228.30 2038.20 2233.60 2041.70 C 2282.70 2024.30 2309.40 1971.20 2306.50 1919.40 Z" fill="#fc9590" fill-rule="nonzero" group-id="1" node-id="266" stroke="none" target-height="223.90002" target-width="152.7998" target-x="2156.6" target-y="1910.4"></path><path d="M 2325.90 1969.70 C 2322.60 1961.70 2323.20 1944.90 2323.20 1944.90 C 2319.90 1932.90 2314.20 1924.60 2306.40 1919.40 C 2309.40 1971.20 2282.70 2024.30 2233.50 2041.70 C 2251.80 2053.70 2264.40 2050.40 2289.80 2035.90 C 2322.60 2017.90 2329.30 1975.70 2325.90 1969.70 Z" fill="#db6767" fill-rule="nonzero" group-id="1" node-id="268" stroke="none" target-height="134.29993" target-width="95.80005" target-x="2233.5" target-y="1919.4"></path><path d="M 1942.51 1315.11 L 1947.23 1315.32 L 1951.79 1315.89 L 1956.20 1316.81 L 1960.48 1318.07 L 1966.02 1320.27 L 1971.20 1322.98 L 1976.07 1326.21 L 1980.59 1329.91 L 1984.67 1334.03 L 1988.34 1338.57 L 1991.53 1343.46 L 1994.21 1348.67 L 1996.36 1354.22 L 1997.59 1358.50 L 1998.48 1362.92 L 1999.02 1367.49 L 1999.20 1372.21 L 1998.98 1376.94 L 1998.41 1381.50 L 1997.50 1385.91 L 1996.23 1390.19 L 1994.03 1395.72 L 1991.33 1400.91 L 1988.10 1405.78 L 1984.39 1410.29 L 1980.28 1414.38 L 1975.74 1418.05 L 1970.85 1421.24 L 1965.64 1423.91 L 1960.09 1426.07 L 1955.80 1427.30 L 1951.38 1428.19 L 1946.82 1428.72 L 1942.09 1428.91 L 1937.37 1428.69 L 1932.81 1428.12 L 1928.40 1427.20 L 1924.12 1425.94 L 1918.58 1423.74 L 1913.40 1421.03 L 1908.53 1417.81 L 1904.01 1414.10 L 1899.93 1409.99 L 1896.26 1405.44 L 1893.07 1400.55 L 1890.39 1395.35 L 1888.24 1389.80 L 1887.01 1385.51 L 1886.12 1381.09 L 1885.58 1376.53 L 1885.40 1371.80 L 1885.62 1367.08 L 1886.19 1362.52 L 1887.10 1358.10 L 1888.37 1353.83 L 1890.57 1348.29 L 1893.27 1343.10 L 1896.50 1338.24 L 1900.21 1333.72 L 1904.32 1329.64 L 1908.86 1325.96 L 1913.75 1322.77 L 1918.96 1320.10 L 1924.51 1317.94 L 1928.80 1316.71 L 1933.22 1315.83 L 1937.78 1315.29 L 1942.51 1315.11 Z" fill="#ffffff" fill-rule="nonzero" group-id="1,4,9" node-id="274" stroke="none" target-height="113.79993" target-width="113.80005" target-x="1885.3999" target-y="1315.1062"></path><path d="M 1942.51 1331.79 L 1946.70 1332.04 L 1950.69 1332.66 L 1954.51 1333.66 L 1958.18 1335.03 L 1961.73 1336.76 L 1965.02 1338.78 L 1968.09 1341.10 L 1970.95 1343.71 L 1973.55 1346.59 L 1975.83 1349.68 L 1977.82 1352.99 L 1979.52 1356.54 L 1980.86 1360.21 L 1981.82 1364.04 L 1982.41 1368.02 L 1982.61 1372.20 L 1982.36 1376.37 L 1981.74 1380.35 L 1980.74 1384.17 L 1979.36 1387.83 L 1977.63 1391.36 L 1975.60 1394.65 L 1973.29 1397.71 L 1970.66 1400.57 L 1967.78 1403.15 L 1964.68 1405.44 L 1961.37 1407.42 L 1957.81 1409.11 L 1954.12 1410.45 L 1950.29 1411.41 L 1946.29 1411.99 L 1942.10 1412.19 L 1937.92 1411.95 L 1933.93 1411.32 L 1930.11 1410.33 L 1926.43 1408.95 L 1922.89 1407.22 L 1919.59 1405.21 L 1916.52 1402.89 L 1913.67 1400.27 L 1911.07 1397.40 L 1908.78 1394.31 L 1906.79 1391.00 L 1905.10 1387.45 L 1903.76 1383.77 L 1902.80 1379.95 L 1902.21 1375.96 L 1902.01 1371.79 L 1902.25 1367.62 L 1902.88 1363.63 L 1903.88 1359.82 L 1905.26 1356.16 L 1906.99 1352.63 L 1909.01 1349.34 L 1911.33 1346.27 L 1913.96 1343.42 L 1916.84 1340.83 L 1919.93 1338.55 L 1923.25 1336.57 L 1926.81 1334.87 L 1930.50 1333.54 L 1934.33 1332.58 L 1938.33 1332.00 L 1942.51 1331.79 Z" fill="#572658" fill-rule="nonzero" group-id="1,4,10" node-id="279" stroke="none" target-height="80.400024" target-width="80.599976" target-x="1902.0089" target-y="1331.7938"></path><path d="M 1298.10 2092.80 C 1298.10 2124.23 1272.63 2149.70 1241.20 2149.70 C 1209.77 2149.70 1184.30 2124.23 1184.30 2092.80 C 1184.30 2061.37 1209.77 2035.90 1241.20 2035.90 C 1272.63 2035.90 1298.10 2061.37 1298.10 2092.80 Z" fill="#ffffff" fill-rule="nonzero" group-id="1,5" node-id="285" stroke="none" target-height="113.79993" target-width="113.79993" target-x="1184.3" target-y="2035.9"></path><path d="M 1281.52 2092.62 L 1281.31 2096.80 L 1280.73 2100.78 L 1279.77 2104.60 L 1278.43 2108.28 L 1276.73 2111.83 L 1274.74 2115.14 L 1272.46 2118.23 L 1269.86 2121.11 L 1267.00 2123.72 L 1263.93 2126.04 L 1260.63 2128.06 L 1257.09 2129.79 L 1253.42 2131.16 L 1249.60 2132.16 L 1245.61 2132.78 L 1241.42 2133.03 L 1237.24 2132.83 L 1233.24 2132.24 L 1229.41 2131.28 L 1225.72 2129.95 L 1222.16 2128.26 L 1218.84 2126.27 L 1215.75 2123.99 L 1212.87 2121.40 L 1210.24 2118.55 L 1207.92 2115.49 L 1205.90 2112.20 L 1204.16 2108.67 L 1202.79 2105.00 L 1201.79 2101.19 L 1201.16 2097.21 L 1200.92 2093.04 L 1201.12 2088.86 L 1201.70 2084.87 L 1202.67 2081.05 L 1204.00 2077.37 L 1205.70 2073.82 L 1207.69 2070.51 L 1209.98 2067.43 L 1212.57 2064.55 L 1215.43 2061.93 L 1218.50 2059.62 L 1221.80 2057.60 L 1225.34 2055.87 L 1229.01 2054.50 L 1232.83 2053.50 L 1236.83 2052.87 L 1241.01 2052.63 L 1245.19 2052.83 L 1249.19 2053.41 L 1253.02 2054.37 L 1256.71 2055.71 L 1260.27 2057.40 L 1263.59 2059.39 L 1266.68 2061.67 L 1269.57 2064.26 L 1272.19 2067.11 L 1274.51 2070.17 L 1276.53 2073.46 L 1278.27 2076.99 L 1279.64 2080.65 L 1280.64 2084.47 L 1281.27 2088.45 L 1281.52 2092.62 Z" fill="#572658" fill-rule="nonzero" group-id="1,5,11" node-id="289" stroke="none" target-height="80.3999" target-width="80.599976" target-x="1200.9164" target-y="2052.628"></path><path d="M 2008.70 2747.20 C 2008.70 2778.63 1983.23 2804.10 1951.80 2804.10 C 1920.37 2804.10 1894.90 2778.63 1894.90 2747.20 C 1894.90 2715.77 1920.37 2690.30 1951.80 2690.30 C 1983.23 2690.30 2008.70 2715.77 2008.70 2747.20 Z" fill="#ffffff" fill-rule="nonzero" group-id="1,6" node-id="295" stroke="none" target-height="113.80005" target-width="113.79993" target-x="1894.9" target-y="2690.3"></path><path d="M 1992.10 2747.20 C 1992.10 2769.40 1974.06 2787.40 1951.80 2787.40 C 1929.54 2787.40 1911.50 2769.40 1911.50 2747.20 C 1911.50 2725.00 1929.54 2707.00 1951.80 2707.00 C 1974.06 2707.00 1992.10 2725.00 1992.10 2747.20 Z" fill="#572658" fill-rule="nonzero" group-id="1,6" node-id="297" stroke="none" target-height="80.3999" target-width="80.599976" target-x="1911.5" target-y="2707"></path><path d="M 2837.72 3473.91 L 2837.54 3478.64 L 2837.00 3483.20 L 2836.12 3487.62 L 2834.89 3491.91 L 2832.73 3497.46 L 2830.06 3502.67 L 2826.87 3507.56 L 2823.19 3512.10 L 2819.11 3516.21 L 2814.59 3519.92 L 2809.73 3523.15 L 2804.54 3525.86 L 2799.01 3528.06 L 2794.73 3529.32 L 2790.32 3530.24 L 2785.76 3530.81 L 2781.03 3531.02 L 2776.31 3530.84 L 2771.74 3530.30 L 2767.32 3529.42 L 2763.04 3528.19 L 2757.49 3526.03 L 2752.28 3523.36 L 2747.39 3520.17 L 2742.84 3516.50 L 2738.73 3512.41 L 2735.02 3507.90 L 2731.80 3503.03 L 2729.09 3497.85 L 2726.89 3492.31 L 2725.63 3488.03 L 2724.71 3483.62 L 2724.14 3479.06 L 2723.92 3474.34 L 2724.10 3469.61 L 2724.64 3465.05 L 2725.52 3460.63 L 2726.75 3456.34 L 2728.91 3450.79 L 2731.58 3445.58 L 2734.77 3440.69 L 2738.44 3436.15 L 2742.53 3432.03 L 2747.04 3428.33 L 2751.91 3425.10 L 2757.10 3422.39 L 2762.63 3420.19 L 2766.91 3418.93 L 2771.32 3418.01 L 2775.88 3417.44 L 2780.61 3417.22 L 2785.33 3417.41 L 2789.90 3417.94 L 2794.31 3418.83 L 2798.60 3420.06 L 2804.15 3422.22 L 2809.36 3424.89 L 2814.25 3428.08 L 2818.79 3431.75 L 2822.91 3435.83 L 2826.62 3440.35 L 2829.84 3445.22 L 2832.55 3450.40 L 2834.75 3455.94 L 2836.01 3460.22 L 2836.93 3464.63 L 2837.50 3469.19 L 2837.72 3473.91 Z" fill="#ffffff" fill-rule="nonzero" group-id="1,7,12" node-id="304" stroke="none" target-height="113.80005" target-width="113.80005" target-x="2723.9192" target-y="3417.224"></path><path d="M 2821.14 3473.93 L 2820.94 3478.11 L 2820.35 3482.10 L 2819.39 3485.92 L 2818.06 3489.60 L 2816.36 3493.15 L 2814.37 3496.46 L 2812.08 3499.55 L 2809.49 3502.42 L 2806.63 3505.04 L 2803.56 3507.36 L 2800.26 3509.38 L 2796.72 3511.11 L 2793.05 3512.48 L 2789.23 3513.48 L 2785.24 3514.10 L 2781.05 3514.35 L 2776.87 3514.15 L 2772.87 3513.56 L 2769.04 3512.61 L 2765.35 3511.27 L 2761.79 3509.58 L 2758.47 3507.60 L 2755.38 3505.31 L 2752.49 3502.73 L 2749.87 3499.88 L 2747.55 3496.81 L 2745.52 3493.53 L 2743.79 3489.99 L 2742.41 3486.33 L 2741.41 3482.52 L 2740.79 3478.54 L 2740.54 3474.36 L 2740.74 3470.19 L 2741.33 3466.20 L 2742.29 3462.38 L 2743.62 3458.70 L 2745.32 3455.15 L 2747.31 3451.84 L 2749.60 3448.75 L 2752.19 3445.88 L 2755.05 3443.26 L 2758.12 3440.94 L 2761.41 3438.92 L 2764.96 3437.19 L 2768.63 3435.82 L 2772.45 3434.82 L 2776.44 3434.19 L 2780.63 3433.95 L 2784.81 3434.15 L 2788.81 3434.73 L 2792.64 3435.69 L 2796.33 3437.02 L 2799.89 3438.72 L 2803.21 3440.70 L 2806.30 3442.98 L 2809.18 3445.57 L 2811.81 3448.42 L 2814.13 3451.49 L 2816.15 3454.77 L 2817.89 3458.30 L 2819.26 3461.97 L 2820.27 3465.78 L 2820.89 3469.76 L 2821.14 3473.93 Z" fill="#572658" fill-rule="nonzero" group-id="1,7,13" node-id="309" stroke="none" target-height="80.40015" target-width="80.6001" target-x="2740.5393" target-y="3433.949"></path><path d="M 3359.37 2650.08 L 3364.10 2650.30 L 3368.66 2650.87 L 3373.07 2651.78 L 3377.35 2653.05 L 3382.88 2655.24 L 3388.07 2657.95 L 3392.94 2661.18 L 3397.45 2664.89 L 3401.54 2669.00 L 3405.21 2673.54 L 3408.40 2678.43 L 3411.07 2683.64 L 3413.23 2689.19 L 3414.46 2693.48 L 3415.35 2697.90 L 3415.89 2702.46 L 3416.07 2707.19 L 3415.85 2711.91 L 3415.28 2716.47 L 3414.36 2720.88 L 3413.10 2725.16 L 3410.90 2730.70 L 3408.20 2735.88 L 3404.97 2740.75 L 3401.26 2745.27 L 3397.15 2749.35 L 3392.61 2753.02 L 3387.72 2756.21 L 3382.51 2758.89 L 3376.96 2761.04 L 3372.67 2762.28 L 3368.25 2763.16 L 3363.69 2763.70 L 3358.96 2763.88 L 3354.24 2763.66 L 3349.68 2763.09 L 3345.27 2762.18 L 3340.99 2760.92 L 3335.45 2758.72 L 3330.27 2756.01 L 3325.40 2752.78 L 3320.88 2749.08 L 3316.80 2744.96 L 3313.13 2740.42 L 3309.93 2735.53 L 3307.26 2730.32 L 3305.11 2724.77 L 3303.87 2720.48 L 3302.99 2716.07 L 3302.45 2711.50 L 3302.27 2706.78 L 3302.49 2702.05 L 3303.06 2697.49 L 3303.97 2693.08 L 3305.23 2688.80 L 3307.43 2683.27 L 3310.14 2678.08 L 3313.37 2673.21 L 3317.07 2668.70 L 3321.19 2664.61 L 3325.73 2660.94 L 3330.62 2657.75 L 3335.83 2655.08 L 3341.38 2652.92 L 3345.67 2651.69 L 3350.08 2650.80 L 3354.65 2650.26 L 3359.37 2650.08 Z" fill="#ffffff" fill-rule="nonzero" group-id="1,8,14" node-id="317" stroke="none" target-height="113.80005" target-width="113.799805" target-x="3302.2688" target-y="2650.081"></path><path d="M 3359.39 2666.76 L 3363.57 2667.00 L 3367.56 2667.63 L 3371.39 2668.63 L 3375.06 2670.00 L 3378.60 2671.73 L 3381.90 2673.75 L 3384.97 2676.06 L 3387.83 2678.68 L 3390.42 2681.56 L 3392.71 2684.64 L 3394.70 2687.95 L 3396.40 2691.50 L 3397.74 2695.18 L 3398.70 2699.00 L 3399.28 2702.99 L 3399.49 2707.16 L 3399.24 2711.34 L 3398.61 2715.32 L 3397.61 2719.13 L 3396.24 2722.80 L 3394.51 2726.33 L 3392.48 2729.62 L 3390.16 2732.68 L 3387.54 2735.53 L 3384.66 2738.12 L 3381.56 2740.40 L 3378.24 2742.39 L 3374.69 2744.08 L 3371.00 2745.41 L 3367.17 2746.37 L 3363.17 2746.96 L 3358.98 2747.16 L 3354.80 2746.92 L 3350.81 2746.29 L 3346.99 2745.29 L 3343.31 2743.92 L 3339.77 2742.19 L 3336.47 2740.17 L 3333.40 2737.86 L 3330.55 2735.24 L 3327.95 2732.36 L 3325.66 2729.28 L 3323.67 2725.97 L 3321.97 2722.42 L 3320.64 2718.74 L 3319.67 2714.92 L 3319.09 2710.93 L 3318.89 2706.76 L 3319.13 2702.58 L 3319.76 2698.60 L 3320.76 2694.79 L 3322.13 2691.12 L 3323.87 2687.59 L 3325.89 2684.30 L 3328.21 2681.24 L 3330.83 2678.39 L 3333.72 2675.80 L 3336.81 2673.52 L 3340.13 2671.53 L 3343.69 2669.84 L 3347.37 2668.51 L 3351.21 2667.55 L 3355.20 2666.96 L 3359.39 2666.76 Z" fill="#572658" fill-rule="nonzero" group-id="1,8,15" node-id="322" stroke="none" target-height="80.40015" target-width="80.6001" target-x="3318.8857" target-y="2666.76"></path><path d="M 2780.70 1951.90 C 2780.70 1951.90 2990.40 1751.80 3019.00 1743.70 C 3047.60 1735.50 3065.40 1746.20 3075.20 1764.10 C 3085.00 1781.90 3075.20 1810.50 3065.40 1819.40 C 3055.60 1828.30 2844.10 2020.20 2844.10 2020.20 L 2780.70 1951.90 Z" fill="#102140" fill-rule="nonzero" group-id="1" node-id="326" stroke="none" target-height="284.69995" target-width="304.30005" target-x="2780.7" target-y="1735.5"></path><path d="M 1624.40 2462.30 L 1801.10 2462.30 L 1806.50 2747.20 L 1624.40 2747.20 Z" fill="#ffffff" fill-rule="nonzero" group-id="1" node-id="328" stroke="none" target-height="284.8999" target-width="182.09998" target-x="1624.4" target-y="2462.3"></path><path d="M 2423.30 2929.70 L 2532.50 3068.60 L 2311.90 3249.00 L 2199.30 3105.90 Z" fill="#ffffff" fill-rule="nonzero" group-id="1" node-id="330" stroke="none" target-height="319.30005" target-width="333.19995" target-x="2199.3" target-y="2929.7"></path><path d="M 2783.10 3113.40 L 2877.40 3262.90 L 2639.30 3419.50 L 2542.10 3265.50 Z" fill="#ffffff" fill-rule="nonzero" group-id="1" node-id="332" stroke="none" target-height="306.1001" target-width="335.2998" target-x="2542.1" target-y="3113.4"></path><path d="M 3120.00 2610.10 L 3264.10 2712.40 L 3103.40 2947.80 L 2955.00 2842.40 Z" fill="#ffffff" fill-rule="nonzero" group-id="1" node-id="334" stroke="none" target-height="337.69995" target-width="309.1001" target-x="2955" target-y="2610.1"></path><path d="M 2849.10 2185.50 L 2936.70 2338.90 L 2691.90 2484.80 L 2601.60 2326.80 Z" fill="#ededed" fill-rule="nonzero" group-id="1" node-id="336" stroke="none" target-height="299.30005" target-width="335.09985" target-x="2601.6" target-y="2185.5"></path><path d="M 2788.70 2120.60 L 2876.30 2274.00 L 2631.50 2420.00 L 2541.20 2261.90 Z" fill="#ffffff" fill-rule="nonzero" group-id="1" node-id="338" stroke="none" target-height="299.3999" target-width="335.1001" target-x="2541.2" target-y="2120.6"></path><path d="M 1603.40 1660.90 C 1603.40 1660.90 1567.70 1666.70 1585.10 1697.50 C 1602.50 1728.30 1629.30 1735.40 1646.20 1713.10 C 1630.20 1690.40 1603.40 1660.90 1603.40 1660.90 Z" fill="#fc9590" fill-rule="nonzero" group-id="1" node-id="340" stroke="none" target-height="74.5" target-width="78.5" target-x="1567.7" target-y="1660.9"></path><path d="M 2692.30 2504.60 C 2698.30 2528.50 2712.70 2550.10 2732.50 2565.80 C 2739.30 2555.50 2744.40 2537.60 2736.10 2523.40 C 2723.60 2502.00 2714.70 2469.90 2721.80 2468.10 C 2731.60 2474.80 2731.20 2490.50 2743.70 2484.90 C 2756.20 2479.30 2747.30 2443.10 2740.10 2431.10 C 2733.00 2419.10 2726.30 2394.50 2728.50 2387.40 C 2729.30 2385.00 2722.10 2381.30 2712.30 2377.50 C 2694.90 2417.70 2679.90 2460.10 2692.30 2504.60 Z" fill="#fc9590" fill-rule="nonzero" group-id="1" node-id="342" stroke="none" target-height="188.30005" target-width="76.30005" target-x="2679.9" target-y="2377.5"></path><path d="M 2692.30 2504.60 C 2679.90 2460.10 2694.90 2417.70 2712.20 2377.40 C 2693.00 2369.90 2663.70 2361.90 2663.70 2361.90 C 2663.70 2361.90 2631.40 2485.00 2657.80 2524.30 C 2684.20 2563.60 2714.60 2574.30 2722.60 2574.30 C 2725.30 2574.30 2729.00 2571.00 2732.40 2565.90 C 2712.70 2550.10 2698.30 2528.50 2692.30 2504.60 Z" fill="#db6767" fill-rule="nonzero" group-id="1" node-id="344" stroke="none" target-height="212.40015" target-width="101" target-x="2631.4" target-y="2361.9"></path><path d="M 2814.30 2095.10 C 2782.40 2132.90 2776.50 2185.10 2753.30 2228.70 C 2750.40 2237.40 2756.20 2251.90 2753.30 2260.60 C 2731.20 2304.70 2714.40 2351.50 2722.70 2400.80 C 2729.50 2399.90 2736.70 2397.90 2744.90 2394.80 C 2757.80 2296.00 2811.60 2110.20 2845.20 2083.40 C 2858.40 2072.90 2888.00 2064.20 2919.00 2057.60 C 2879.50 2054.30 2839.90 2062.70 2814.30 2095.10 Z" fill="#ffb114" fill-rule="nonzero" group-id="1" node-id="346" stroke="none" target-height="346.5" target-width="204.6001" target-x="2714.4" target-y="2054.3"></path><path d="M 2941.00 1907.70 C 2822.60 1946.90 2764.50 1980.30 2718.10 2051.30 C 2703.20 2074.10 2643.80 2371.70 2657.40 2383.30 C 2687.50 2397.50 2703.90 2403.30 2722.60 2400.80 C 2714.30 2351.40 2731.10 2304.70 2753.20 2260.60 C 2756.10 2251.90 2750.30 2237.40 2753.20 2228.70 C 2776.40 2185.10 2782.20 2132.90 2814.20 2095.10 C 2839.80 2062.70 2879.40 2054.30 2918.90 2057.70 C 2966.70 2047.50 3018.00 2042.00 3018.00 2042.00 L 3087.10 1949.90 L 3114.40 1913.50 C 3114.50 1913.50 3059.50 1868.50 2941.00 1907.70 Z" fill="#ffde70" fill-rule="nonzero" group-id="1" node-id="348" stroke="none" target-height="534.80005" target-width="470.69995" target-x="2643.8" target-y="1868.5"></path><path d="M 2788.10 2577.20 C 2751.80 2572.00 2738.60 2543.60 2746.60 2510.70 C 2740.70 2512.00 2734.50 2514.60 2728.80 2518.50 C 2715.00 2527.90 2701.60 2554.60 2703.40 2563.10 C 2705.20 2571.60 2738.20 2626.90 2785.70 2623.60 C 2842.30 2619.60 2848.20 2610.90 2878.00 2607.80 C 2907.80 2604.70 2915.80 2604.20 2915.80 2604.20 L 2914.10 2585.10 C 2876.20 2599.50 2827.30 2585.90 2788.10 2577.20 Z" fill="#db6767" fill-rule="nonzero" group-id="1" node-id="350" stroke="none" target-height="116.19995" target-width="214.19995" target-x="2701.6" target-y="2510.7"></path><path d="M 2862.30 2537.70 C 2850.30 2527.40 2828.80 2497.50 2816.80 2506.50 C 2807.40 2519.90 2816.40 2537.50 2827.10 2544.80 C 2817.30 2548.50 2779.10 2520.40 2769.20 2513.70 C 2763.40 2509.80 2755.20 2508.90 2746.70 2510.80 C 2738.70 2543.70 2751.80 2572.10 2788.20 2577.30 C 2827.30 2586.00 2876.30 2599.60 2914.20 2585.10 L 2910.50 2544.00 C 2910.50 2543.90 2874.40 2547.90 2862.30 2537.70 Z" fill="#fc9590" fill-rule="nonzero" group-id="1" node-id="352" stroke="none" target-height="102.1001" target-width="175.5" target-x="2738.7" target-y="2497.5"></path><path d="M 3331.30 2350.70 C 3351.60 2318.80 3363.20 2283.90 3369.10 2251.90 C 3391.00 2159.30 3398.60 2062.60 3352.50 1977.30 C 3314.30 1954.40 3271.80 1943.60 3271.80 1943.60 L 3264.10 2185.50 C 3264.10 2185.50 3260.70 2294.10 3241.00 2335.20 C 3221.30 2376.30 3160.70 2441.60 3114.50 2462.30 C 3068.30 2483.00 2905.70 2537.40 2905.70 2537.40 C 2905.70 2537.40 2896.90 2567.50 2898.80 2590.30 C 2923.30 2585.20 2942.00 2570.50 2965.40 2562.70 C 3101.80 2516.20 3255.80 2484.30 3331.30 2350.70 Z" fill="#ffde70" fill-rule="nonzero" group-id="1" node-id="354" stroke="none" target-height="646.7001" target-width="501.7002" target-x="2896.9" target-y="1943.6"></path><path d="M 3365.50 1985.80 C 3361.30 1982.80 3356.90 1980.00 3352.40 1977.30 C 3398.60 2062.60 3391.00 2159.30 3369.00 2251.90 C 3363.20 2283.80 3351.60 2318.70 3331.20 2350.70 C 3255.70 2484.30 3101.70 2516.30 2965.20 2562.70 C 2941.80 2570.50 2923.10 2585.20 2898.60 2590.30 C 2899.30 2598.40 2901.30 2605.50 2905.50 2610.10 C 3011.90 2617.50 3259.60 2547.00 3309.50 2496.90 C 3359.40 2446.90 3452.80 2302.30 3453.20 2206.70 C 3453.60 2103.30 3406.30 2014.50 3365.50 1985.80 Z" fill="#ffb114" fill-rule="nonzero" group-id="1" node-id="356" stroke="none" target-height="640.19995" target-width="555" target-x="2898.6" target-y="1977.3"></path><path d="M 3144.80 1986.00 C 3144.80 1986.00 3122.50 2006.30 3136.80 2023.20 C 3151.10 2040.10 3150.60 2095.90 3147.50 2109.30 C 3153.70 2128.00 3160.40 2124.90 3160.40 2124.90 C 3160.40 2124.90 3175.10 2084.30 3205.50 2075.80 C 3235.80 2067.30 3271.10 2042.30 3278.20 2029.00 C 3285.30 2015.60 3273.70 1978.60 3273.70 1978.60 L 3176.40 1971.00 L 3144.80 1986.00 Z" fill="#ffffff" fill-rule="nonzero" group-id="1" node-id="358" stroke="none" target-height="157" target-width="162.80005" target-x="3122.5" target-y="1971"></path><path d="M 3210.20 1987.50 C 3210.20 1987.50 3196.80 2005.20 3143.90 1998.50 C 3091.00 1991.80 3079.20 1880.50 3079.20 1880.50 C 3079.20 1880.50 3228.20 1827.80 3249.60 1860.60 C 3271.00 1893.40 3266.30 1991.80 3266.30 1991.80 C 3266.30 1991.80 3220.10 2019.00 3196.00 2018.80 C 3171.90 2018.60 3158.60 1999.80 3158.60 1999.80" fill="#fc9590" fill-rule="nonzero" group-id="1" node-id="360" stroke="none" target-height="191.19995" target-width="191.80005" target-x="3079.2" target-y="1827.8"></path><path d="M 2306.00 2832.80 C 2237.30 2777.30 2144.60 2825.20 2084.70 2875.80 C 2090.30 2887.20 2100.90 2903.10 2118.40 2910.00 C 2147.90 2889.30 2178.00 2875.90 2195.00 2872.50 C 2212.10 2869.20 2232.80 2881.90 2246.20 2871.20 C 2259.60 2860.50 2255.60 2862.50 2231.50 2846.40 C 2270.60 2865.20 2305.40 2860.70 2321.90 2853.00 C 2317.50 2845.50 2312.50 2838.50 2306.00 2832.80 Z" fill="#fc9590" fill-rule="nonzero" group-id="1" node-id="362" stroke="none" target-height="132.69995" target-width="237.19995" target-x="2084.7" target-y="2777.3"></path><path d="M 2332.00 2843.70 C 2332.00 2833.70 2299.20 2800.90 2272.40 2790.80 C 2245.60 2780.80 2249.00 2781.40 2210.10 2790.80 C 2171.30 2800.20 2079.60 2863.10 2079.60 2863.10 C 2079.60 2863.10 2081.10 2868.50 2084.70 2875.80 C 2144.60 2825.20 2237.30 2777.30 2306.00 2832.80 C 2312.50 2838.50 2317.50 2845.50 2321.90 2853.00 C 2328.30 2850.00 2332.00 2846.60 2332.00 2843.70 Z" fill="#db6767" fill-rule="nonzero" group-id="1" node-id="364" stroke="none" target-height="98.5" target-width="252.3999" target-x="2079.6" target-y="2777.3"></path><path d="M 1867.40 3158.10 C 1881.90 3117.40 1905.20 3079.70 1931.30 3041.90 C 1942.90 3027.40 1954.50 3018.70 1963.20 3007.00 C 2003.40 2950.70 2051.10 2909.20 2092.50 2859.70 C 2081.80 2855.20 2072.90 2854.40 2072.90 2854.40 C 2072.90 2854.40 1728.20 3127.00 1703.40 3358.10 C 1678.60 3589.20 1726.80 3616.80 1840.60 3679.50 C 1840.60 3679.50 2039.00 3728.90 2107.60 3672.30 C 2143.70 3638.70 2151.40 3616.80 2151.40 3616.80 L 2087.20 3569.70 C 2041.30 3566.90 1994.10 3566.20 1951.60 3538.50 C 1821.00 3451.50 1823.90 3291.70 1867.40 3158.10 Z" fill="#ffb114" fill-rule="nonzero" group-id="1" node-id="366" stroke="none" target-height="874.5" target-width="472.79993" target-x="1678.6" target-y="2854.4"></path><path d="M 1894.80 3173.00 C 1944.30 3057.90 2082.20 2962.90 2129.10 2914.70 C 2128.30 2881.50 2108.40 2866.50 2092.50 2859.80 C 2051.10 2909.30 2003.50 2950.80 1963.20 3007.10 C 1954.50 3018.70 1942.90 3027.40 1931.30 3042.00 C 1905.20 3079.80 1881.90 3117.50 1867.40 3158.20 C 1823.80 3291.80 1820.90 3451.60 1951.60 3538.70 C 1994.10 3566.40 2041.30 3567.10 2087.20 3569.90 L 1913.30 3442.20 C 1885.00 3389.90 1845.30 3288.10 1894.80 3173.00 Z" fill="#ffde70" fill-rule="nonzero" group-id="1" node-id="368" stroke="none" target-height="710.09985" target-width="308.20007" target-x="1820.9" target-y="2859.8"></path><path d="M 2253.70 3024.50 C 2281.70 3040.50 2300.00 3066.10 2318.20 3092.80 C 2324.00 3082.30 2328.30 3070.90 2325.90 3062.80 C 2325.90 3062.80 2256.70 2964.20 2218.40 2957.10 C 2180.00 2950.00 2151.00 2962.50 2143.90 2988.30 C 2143.80 2994.90 2148.90 3000.90 2156.70 3006.30 C 2190.90 3003.10 2223.30 3008.10 2253.70 3024.50 Z" fill="#fc9590" fill-rule="nonzero" group-id="1" node-id="370" stroke="none" target-height="142.80005" target-width="184.5" target-x="2143.8" target-y="2950"></path><path d="M 2253.70 3024.50 C 2223.20 3008.10 2190.90 3003.10 2156.70 3006.30 C 2174.60 3018.60 2206.50 3027.50 2220.20 3032.50 C 2239.80 3039.60 2224.20 3044.50 2215.30 3049.50 C 2206.40 3054.40 2225.60 3061.50 2258.60 3078.90 C 2291.60 3096.30 2299.20 3120.40 2299.20 3120.40 C 2299.20 3120.40 2310.20 3107.40 2318.30 3092.80 C 2300.00 3066.10 2281.70 3040.50 2253.70 3024.50 Z" fill="#db6767" fill-rule="nonzero" group-id="1" node-id="372" stroke="none" target-height="117.299805" target-width="161.6001" target-x="2156.7" target-y="3003.1"></path><path d="M 2407.60 3277.90 C 2396.90 3165.90 2326.60 3044.10 2326.60 3044.10 C 2325.00 3042.60 2321.50 3043.50 2317.10 3046.10 C 2317.30 3046.60 2317.40 3047.20 2317.60 3047.70 C 2375.70 3204.50 2471.50 3413.70 2314.70 3538.60 C 2252.70 3589.80 2168.20 3613.50 2084.40 3605.00 L 2063.50 3679.60 C 2063.50 3679.60 2316.70 3647.90 2385.30 3545.30 C 2434.00 3472.50 2418.30 3389.90 2407.60 3277.90 Z" fill="#ffb114" fill-rule="nonzero" group-id="1" node-id="374" stroke="none" target-height="637" target-width="408" target-x="2063.5" target-y="3042.6"></path><path d="M 2314.70 3538.60 C 2471.50 3413.70 2375.70 3204.60 2317.60 3047.70 C 2317.40 3047.20 2317.30 3046.60 2317.10 3046.10 C 2300.90 3055.90 2272.00 3089.20 2274.60 3113.40 C 2289.80 3141.30 2316.50 3228.30 2307.20 3329.10 C 2297.80 3429.90 2268.40 3466.50 2243.40 3487.00 C 2218.40 3507.50 2117.60 3487.00 2117.60 3487.00 L 2084.50 3604.90 C 2168.30 3613.50 2252.70 3589.80 2314.70 3538.60 Z" fill="#ffde70" fill-rule="nonzero" group-id="1" node-id="376" stroke="none" target-height="567.3999" target-width="387" target-x="2084.5" target-y="3046.1"></path><path d="M 1066.20 2545.90 C 1066.20 2545.90 1066.20 2512.40 1075.60 2508.40 C 1085.00 2504.40 1155.90 2499.00 1163.30 2545.90 C 1143.20 2575.30 1143.20 2575.30 1143.20 2575.30 L 1066.20 2545.90 Z" fill="#ffffff" fill-rule="nonzero" group-id="1" node-id="378" stroke="#1a1a1a" stroke-linecap="round" stroke-width="2" target-height="76.30005" target-width="97.1001" target-x="1066.2" target-y="2499"></path><path d="M 1463.70 2635.30 C 1468.10 2600.00 1472.50 2556.30 1455.20 2522.00 L 1423.00 2540.60 C 1423.00 2540.60 1425.50 2558.60 1423.50 2591.70 C 1422.00 2615.90 1423.40 2639.20 1429.30 2655.00 C 1447.30 2654.40 1462.20 2651.90 1463.70 2635.30 Z" fill="#fc9590" fill-rule="nonzero" group-id="1" node-id="380" stroke="none" target-height="133" target-width="50.5" target-x="1422" target-y="2522"></path><path d="M 1473.10 2511.70 L 1455.20 2522.10 C 1472.50 2556.30 1468.10 2600.10 1463.70 2635.40 C 1462.20 2652.00 1447.30 2654.50 1429.40 2655.10 C 1431.50 2660.90 1434.30 2665.80 1437.70 2669.20 C 1450.40 2681.90 1506.00 2647.10 1522.00 2623.00 C 1538.10 2598.80 1473.10 2511.70 1473.10 2511.70 Z" fill="#db6767" fill-rule="nonzero" group-id="1" node-id="382" stroke="none" target-height="170.19995" target-width="108.69995" target-x="1429.4" target-y="2511.7"></path><path d="M 917.70 2667.30 C 943.80 2568.50 1016.50 2498.80 1054.20 2405.90 C 1060.00 2394.30 1068.70 2379.80 1074.50 2365.20 C 1074.80 2364.50 1075.20 2363.80 1075.60 2363.10 C 1022.50 2409.20 971.90 2502.80 918.90 2582.80 C 850.60 2685.90 834.60 2788.90 834.60 2854.50 C 834.60 2920.10 906.90 3020.50 906.90 3020.50 L 943.80 2929.60 C 910.00 2848.30 893.20 2761.90 917.70 2667.30 Z" fill="#d9d9d9" fill-rule="nonzero" group-id="1" node-id="384" stroke="none" target-height="657.3999" target-width="241" target-x="834.6" target-y="2363.1"></path><path d="M 1378.10 2403.40 C 1305.80 2336.50 1193.40 2319.10 1122.40 2336.50 C 1106.50 2340.40 1090.90 2349.80 1075.60 2363.10 C 1075.20 2363.80 1074.90 2364.50 1074.50 2365.20 C 1068.70 2379.70 1060.00 2394.20 1054.20 2405.90 C 1016.40 2498.80 943.80 2568.60 917.70 2667.30 C 893.20 2761.90 910.00 2848.30 943.80 2929.50 L 1066.20 2628.20 C 1066.20 2628.20 1177.30 2467.60 1218.10 2448.80 C 1258.90 2430.10 1339.30 2475.60 1414.20 2562.60 C 1439.60 2568.00 1465.10 2551.90 1487.80 2511.60 C 1487.90 2498.10 1450.40 2470.30 1378.10 2403.40 Z" fill="#ffffff" fill-rule="nonzero" group-id="1" node-id="386" stroke="none" target-height="610.3999" target-width="594.7" target-x="893.2" target-y="2319.1"></path><path d="M 1408.50 2353.60 C 1406.00 2354.00 1404.30 2355.00 1403.20 2356.50 C 1415.20 2371.30 1434.90 2388.70 1449.10 2397.40 C 1457.80 2406.80 1457.80 2406.80 1457.80 2406.80 C 1457.80 2406.80 1421.70 2387.40 1415.60 2392.10 C 1409.60 2396.80 1426.30 2426.20 1445.10 2434.30 C 1463.80 2442.30 1490.60 2467.10 1494.60 2487.80 C 1498.60 2508.50 1499.90 2525.80 1499.90 2525.80 L 1541.90 2522.00 C 1538.60 2443.60 1502.40 2334.20 1408.50 2353.60 Z" fill="#fc9590" fill-rule="nonzero" group-id="1" node-id="388" stroke="none" target-height="191.6001" target-width="138.70007" target-x="1403.2" target-y="2334.2"></path><path d="M 1491.20 2358.50 C 1463.10 2330.10 1390.10 2323.70 1392.80 2338.40 C 1393.70 2343.10 1397.60 2349.50 1403.20 2356.40 C 1404.40 2354.90 1406.10 2353.90 1408.50 2353.50 C 1502.40 2334.20 1538.50 2443.60 1541.80 2521.80 L 1556.70 2520.40 C 1556.80 2520.50 1542.80 2408.70 1491.20 2358.50 Z" fill="#db6767" fill-rule="nonzero" group-id="1" node-id="390" stroke="none" target-height="198.1001" target-width="166.70007" target-x="1390.1" target-y="2323.7"></path><path d="M 1584.30 2647.70 C 1581.60 2596.80 1572.90 2523.90 1564.20 2511.70 C 1556.60 2501.00 1534.60 2493.80 1506.30 2510.60 C 1527.70 2612.80 1528.60 2725.10 1460.80 2812.60 C 1385.30 2902.60 1251.70 2902.60 1184.90 2798.10 C 1183.10 2795.00 1181.50 2791.80 1180.10 2788.60 C 1169.40 2777.80 1163.20 2770.30 1163.20 2770.30 L 1092.70 2969.40 C 1144.40 3022.70 1198.40 3051.20 1265.60 3029.30 C 1352.00 3043.40 1451.70 2979.00 1518.60 2902.10 C 1585.60 2825.00 1586.90 2698.50 1584.30 2647.70 Z" fill="#ffffff" fill-rule="nonzero" group-id="1" node-id="392" stroke="none" target-height="557.3999" target-width="494.20007" target-x="1092.7" target-y="2493.8"></path><path d="M 1460.80 2812.50 C 1528.60 2725.00 1527.70 2612.80 1506.30 2510.50 C 1502.30 2512.90 1498.20 2515.70 1493.90 2519.10 C 1501.30 2531.60 1495.90 2681.70 1487.90 2723.90 C 1479.90 2766.10 1395.50 2872.50 1313.10 2863.00 C 1255.40 2856.30 1205.10 2813.60 1180.10 2788.50 C 1181.50 2791.70 1183.10 2794.80 1184.90 2798.00 C 1251.70 2902.50 1385.30 2902.50 1460.80 2812.50 Z" fill="#d9d9d9" fill-rule="nonzero" group-id="1" node-id="394" stroke="none" target-height="392" target-width="348.5" target-x="1180.1" target-y="2510.5"></path><path d="M 1560.20 1596.20 C 1560.20 1596.20 1597.00 1649.70 1604.00 1684.50 C 1611.10 1719.30 1661.90 1742.10 1692.70 1739.40 C 1723.50 1736.70 1751.60 1738.50 1773.00 1739.60 C 1794.40 1740.70 1839.30 1678.50 1850.60 1673.10 C 1862.00 1667.70 1882.70 1617.60 1870.00 1570.00 C 1857.30 1522.50 1813.80 1466.30 1792.40 1452.90 C 1771.00 1439.50 1736.80 1418.80 1694.00 1434.80 C 1651.20 1450.90 1639.10 1478.30 1627.10 1488.30 C 1615.10 1498.30 1568.90 1520.40 1564.20 1547.90 C 1559.50 1575.50 1555.10 1588.50 1560.20 1596.20 Z" fill="#102140" fill-rule="nonzero" group-id="1" node-id="396" stroke="none" target-height="323.29993" target-width="327.59998" target-x="1555.1" target-y="1418.8"></path><path d="M 2400.90 1360.70 C 2400.90 1360.70 2378.10 1427.30 2419.60 1435.50 C 2461.10 1443.70 2481.20 1460.80 2535.40 1442.20 C 2580.90 1455.10 2605.00 1396.20 2625.10 1392.80 C 2645.20 1389.50 2706.10 1431.60 2728.90 1439.00 C 2751.70 1446.40 2821.90 1451.40 2834.00 1420.10 C 2846.00 1388.80 2824.00 1373.40 2800.50 1342.00 C 2777.10 1310.50 2766.40 1292.50 2736.90 1283.10 C 2728.90 1245.00 2714.80 1220.90 2692.10 1220.20 C 2655.30 1186.10 2627.80 1160.60 2586.30 1155.30 C 2536.10 1125.90 2509.30 1128.50 2489.20 1144.60 C 2444.40 1163.30 2456.60 1235.80 2458.80 1261.20 C 2461.10 1286.40 2402.20 1342.90 2400.90 1360.70 Z" fill="#102140" fill-rule="nonzero" group-id="1" node-id="398" stroke="none" target-height="334.90002" target-width="467.8999" target-x="2378.1" target-y="1125.9"></path><path d="M 3114.50 1748.80 C 3114.50 1748.80 3015.40 1830.00 3060.10 1874.60 C 3104.70 1919.20 3144.90 1931.00 3209.10 1891.60 C 3209.10 1891.60 3192.10 1934.40 3218.00 1951.80 C 3243.90 1969.20 3256.40 1973.60 3262.60 1983.40 C 3277.80 1993.20 3321.50 1986.10 3337.60 1946.80 C 3353.70 1907.50 3372.40 1821.00 3319.70 1779.90 C 3267.10 1739.00 3175.20 1701.50 3114.50 1748.80 Z" fill="#102140" fill-rule="nonzero" group-id="1" node-id="400" stroke="none" target-height="291.69995" target-width="357" target-x="3015.4" target-y="1701.5"></path><path d="M 1960.40 3557.40 C 1960.40 3557.40 1928.30 3546.00 1888.10 3555.90 C 1847.90 3565.70 1820.30 3426.50 1859.50 3395.30 C 1898.80 3364.10 2004.10 3239.10 2079.10 3290.00 C 2104.10 3307.80 2104.10 3307.80 2104.10 3307.80 C 2104.10 3307.80 2154.10 3303.30 2164.80 3342.60 C 2175.50 3381.90 2216.60 3399.70 2164.80 3484.50 C 2122.90 3550.50 2150.50 3574.60 2122.00 3592.50 C 2093.40 3610.30 2000.60 3593.70 1960.40 3557.40 Z" fill="#102140" fill-rule="nonzero" group-id="1" node-id="402" stroke="none" target-height="371.19995" target-width="396.30005" target-x="1820.3" target-y="3239.1"></path><path d="M 1293.70 2511.70 C 1293.70 2511.70 1314.50 2614.20 1286.30 2664.40 C 1258.20 2714.60 1217.40 2707.90 1210.70 2704.60 C 1204.00 2701.30 1242.20 2495.80 1242.20 2495.80 L 1293.70 2511.70 Z" fill="#fc9590" fill-rule="nonzero" group-id="1" node-id="404" stroke="none" target-height="218.80005" target-width="110.5" target-x="1204" target-y="2495.8"></path><path d="M 1170.60 2715.90 L 1200.50 2770.10 C 1200.50 2770.10 1265.60 2676.20 1265.60 2604.70 C 1265.60 2533.20 1265.60 2533.20 1265.60 2533.20 L 1150.50 2540.60" fill="#0c182e" fill-rule="nonzero" group-id="1" node-id="406" stroke="none" target-height="236.90015" target-width="115.099976" target-x="1150.5" target-y="2533.2"></path><path d="M 1059.50 2533.20 C 1059.50 2533.20 1075.60 2467.60 1119.10 2438.20 C 1162.60 2408.80 1210.10 2380.60 1266.40 2403.40 C 1322.70 2426.20 1308.60 2583.40 1262.40 2628.30" fill="#102140" fill-rule="nonzero" group-id="1" node-id="408" stroke="none" target-height="247.69995" target-width="263.19995" target-x="1059.5" target-y="2380.6"></path><path d="M 1085.70 2544.70 C 1085.70 2544.70 1075.30 2513.60 1102.30 2518.30 C 1129.20 2523.00 1177.90 2547.30 1178.90 2561.30 C 1179.90 2575.30 1131.30 2580.50 1131.30 2580.50 L 1085.70 2544.70 Z" fill="#ffde70" fill-rule="nonzero" group-id="1" node-id="410" stroke="none" target-height="66.8999" target-width="104.599976" target-x="1075.3" target-y="2513.6"></path><path d="M 1075.50 2525.00 C 1075.50 2525.00 1172.50 2527.80 1184.20 2628.20 C 1196.00 2728.60 1214.00 2784.80 1184.20 2835.70 C 1163.80 2913.30 1170.50 2953.50 1155.80 3001.70 C 1141.10 3049.90 1113.00 3122.20 1035.30 3153.00 C 957.70 3217.20 957.70 3217.20 957.70 3217.20 C 957.70 3217.20 876.00 3024.90 876.00 2955.10 C 876.00 2885.30 874.70 2843.60 905.50 2787.50 C 936.30 2731.30 964.40 2677.80 992.50 2616.20 C 1020.60 2554.60 1054.40 2522.30 1075.50 2525.00 Z" fill="#102140" fill-rule="nonzero" group-id="1" node-id="412" stroke="none" target-height="694.8999" target-width="339.3" target-x="874.7" target-y="2522.3"></path><path d="M 3664.10 3344.00 C 3664.10 3389.12 3627.52 3425.70 3582.40 3425.70 C 3537.28 3425.70 3500.70 3389.12 3500.70 3344.00 C 3500.70 3298.88 3537.28 3262.30 3582.40 3262.30 C 3627.52 3262.30 3664.10 3298.88 3664.10 3344.00 Z" fill="url(#SVGID_4_)" fill-rule="nonzero" group-id="1" node-id="414" stroke="none" target-height="163.3999" target-width="163.40015" target-x="3500.7" target-y="3262.3"></path><path d="M 512.70 2023.30 C 512.70 2135.08 421.32 2225.70 308.60 2225.70 C 195.88 2225.70 104.50 2135.08 104.50 2023.30 C 104.50 1911.52 195.88 1820.90 308.60 1820.90 C 421.32 1820.90 512.70 1911.52 512.70 2023.30 Z" fill="url(#SVGID_5_)" fill-rule="nonzero" group-id="1" node-id="416" stroke="none" target-height="404.79993" target-width="408.2" target-x="104.5" target-y="1820.9"></path></g></svg>